<svg width="200" height="187" viewBox="0 0 200 187" fill="none" xmlns="http://www.w3.org/2000/svg">
<path fill-rule="evenodd" clip-rule="evenodd" d="M110.807 88.0625C121.109 88.624 121.801 76.5805 112.255 74.5901C100.702 72.246 98.6559 88.3762 110.807 88.0625ZM13.1025 109.181C14.48 104.994 17.4519 101.215 16.1101 96.7339C16.6792 93.4472 13.5003 91.4987 13.667 88.2192C14.0273 82.7285 13.0389 76.8826 15.03 71.6578C15.3705 70.837 15.2663 70.4592 14.6319 69.8073C13.0131 68.1435 13.6899 65.452 15.8926 64.8225C34.1038 62.1809 52.569 60.3772 70.957 59.398C73.8951 58.7441 71.5261 63.2138 74.0757 62.7709C85.8586 62.0013 97.68 62.3376 109.457 61.6286C113.462 62.4076 132.362 59.4116 132.079 63.2193C134.978 73.3019 134.602 83.8978 134.955 94.2886C135.329 112.688 131.933 123.009 112.961 109.998C108.988 106.886 91.0523 89.4207 87.2349 95.6471C84.6605 103.91 77.9294 108.163 71.4253 100.658C67.9834 96.3854 64.614 91.0337 59.3109 89.1357C46.1381 85.8513 33.8898 97.7291 28.841 108.83C25.9586 114.089 25.341 124.201 17.5692 123.826C11.0355 124.506 14.597 113.689 13.1025 109.181Z" fill="#3BC5FF"/>
<path fill-rule="evenodd" clip-rule="evenodd" d="M12.9942 109.283C14.144 124.67 14.2093 140.058 15.6819 155.428C16.8215 159.914 15.4145 171.51 18.5532 173.937C54.245 175.475 90.2061 174.243 125.91 172.315C130.547 172.255 137.856 169.611 139.098 176.062C139.779 180.283 133.653 179.738 131.152 181.712C128.944 182.856 126.363 182.537 123.992 182.16C103.875 180.295 83.5636 182.233 63.3766 182.325C49.1191 182.364 35.0723 185.662 20.8136 183.719C17.9022 183.629 19.6925 187.386 15.4572 185.556C12.2378 185.124 12.2668 185.121 11.7649 182.108C10.1574 174.576 9.38763 166.91 8.74235 159.25C7.13309 135.186 4.81237 111.112 4.8173 86.9582C4.45679 75.241 4.04663 63.5866 5.27303 51.9045C5.59784 50.384 5.10903 48.0989 6.78563 47.3577C15.2546 49.063 10.8085 99.5261 12.9942 109.283Z" fill="#FF3B53"/>
<path fill-rule="evenodd" clip-rule="evenodd" d="M166.024 48.3364C165.199 55.2483 169.51 69.2192 158.794 69.223C154.604 68.3145 135.5 71.776 135.882 67.3609C131.413 61.0918 140.953 63.0765 137.663 58.5882C132.297 51.2874 137.072 39.3403 129.668 41.7104C119.445 43.9838 114.899 37.5892 114.365 28.1165C114.658 20.2703 128.915 25.2782 134.084 24.3633C143.23 24.2994 152.084 26.4955 160.989 28.2533C169.774 30.3466 165.126 42.0892 166.024 48.3364Z" fill="#FFC43C"/>
<path fill-rule="evenodd" clip-rule="evenodd" d="M116.438 131.593C121.673 130.977 129.234 134.311 125.755 140.332C123.038 143.445 131.181 146.986 125.502 150.645C120.146 153.569 113.619 153.178 107.701 153.999C103.257 153.553 99.9003 159.941 95.6978 157.354C93.4972 152.152 95.5919 146.11 95.4312 140.6C95.1661 135.716 97.9648 132.609 102.987 132.942C107.316 132.472 112.184 131.827 116.438 131.593Z" fill="#FFC43C"/>
<path fill-rule="evenodd" clip-rule="evenodd" d="M110.89 87.9912C98.618 88.3009 100.686 72.3206 112.353 74.644C121.994 76.6193 121.292 88.5482 110.89 87.9912Z" fill="#FFC43C"/>
<path fill-rule="evenodd" clip-rule="evenodd" d="M12.8601 100.694C13.6947 104.082 11.6022 123.643 14.9796 122.962C17.5261 121.879 21.9676 122.653 22.8133 119.399C25.6869 110.06 29.9346 100.947 36.3984 93.7336C44.2019 84.7463 55.3735 79.3391 65.0317 89.1769C92.4756 114.463 74.2945 101.91 95.3412 92.5652C101.835 90.9132 110.922 103.224 115.996 107.13C121.601 111.33 118.324 113.948 113.336 110.145C110.668 107.912 107.944 105.746 105.289 103.498C102.062 101.622 98.3063 94.2948 94.4116 98.3641C89.7091 102.044 86.521 113.034 79.1196 108.988C69.763 103.376 63.8838 91.2589 53.0325 88.5817C38.4188 91.3042 31.9481 107.391 25.9253 119.332C25.3952 120.427 25.7421 120.943 26.9407 120.888C58.7267 118.8 90.4891 116.836 122.355 116.54C140.829 116.383 133.029 114.006 132.135 95.2674C130.784 85.5431 130.202 75.7533 129.208 66.0002C129.704 61.983 126.64 64.0229 124.167 63.961C108.566 64.3212 92.9723 64.1301 77.3836 65.175C56.1689 67.0405 34.8395 66.6454 13.6358 68.5894C12.5379 68.7762 12.2188 69.1344 12.2484 70.3051C12.5416 80.4447 13.3405 90.5443 12.8601 100.694ZM40.4527 123.633C39.2839 125.297 36.8849 123.686 35.4471 124.448C28.9717 125.84 22.0643 125.669 15.4153 126.486C11.8777 126.976 14.0898 132.629 13.2773 135.163C12.4116 147.383 13.3542 159.634 13.9455 171.846C50.8657 171.836 91.0683 171.094 129.046 173.042C148.084 173.417 140.357 173.591 139.273 149.861C138.014 140.579 137.369 131.18 135.853 121.934C134.956 117.202 135.511 117.681 130.979 117.897C128.139 118.031 125.299 118.165 122.458 118.281C100.15 118.985 77.5003 121.116 55.6347 122.965C54.4944 123.514 52.8542 123.073 51.6112 122.936C48.2188 123.671 43.7499 125.614 40.4207 123.62C40.7575 123.837 41.0879 123.933 41.4815 123.821C41.1514 123.685 40.8066 123.647 40.4527 123.633ZM128.147 60.2871C129.14 57.8772 127.225 47.4558 126.915 44.1616C118.323 44.405 109.683 44.9988 101.089 45.4328C71.0679 46.8533 41.0693 48.7656 11.0152 49.3719C7.60105 48.8475 2.6233 50.4211 0.117439 47.8241C-0.470416 46.5761 1.2975 46.3423 2.12718 46.1212C34.2322 42.2266 66.7122 41.641 98.9943 39.774C106.577 39.4001 114.159 39.0169 121.742 38.639C126.472 38.4002 133.146 37.0044 134.536 43.1507C141.175 85.3468 141.733 127.667 146.325 170.045C146.701 173.244 146.04 177.981 141.85 177.747C135.033 177.009 128.193 176.639 121.329 176.704C106.354 176.39 91.3696 176.691 76.3896 176.69C54.9386 176.457 33.2486 177.798 12.0055 174.474C8.19732 175.498 10.1121 167.062 9.22178 164.824C8.7904 158.302 8.11168 151.783 8.02488 145.246C8.43188 124.038 6.85208 102.862 6.77776 81.652C6.08888 73.2071 6.99461 64.4008 4.89953 56.1813C3.91977 50.9007 10.8112 52.6724 10.7705 56.9749C12.4293 73.8229 13.0285 62.7816 37.4977 63.1868C53.7327 62.856 70.1421 60.4562 86.1538 61.0195C99.5191 59.2811 114.236 60.968 128.147 60.2871Z" fill="white"/>
<path fill-rule="evenodd" clip-rule="evenodd" d="M24.045 0.0367902C28.9349 0.469851 35.3611 0.941429 39.9786 3.74879C42.8608 5.11295 46.4712 9.40103 40.6402 8.19361C33.2957 6.26041 25.716 6.08926 18.283 4.84434C9.63668 0.843965 19.4087 -0.223113 24.045 0.0367902Z" fill="white"/>
<path fill-rule="evenodd" clip-rule="evenodd" d="M185.489 145.381C190.244 144.529 207.389 177.188 196.373 167.195C194.473 164.549 178.371 145.885 185.489 145.381Z" fill="white"/>
<path fill-rule="evenodd" clip-rule="evenodd" d="M170.334 157.334C165.299 158.842 162.022 148.135 159.12 144.778C158.015 142.086 154.135 138.744 156 135.824C156.875 135.297 158.389 134.388 159.169 135.535C163.973 142.147 167.026 149.851 170.334 157.334Z" fill="white"/>
<path fill-rule="evenodd" clip-rule="evenodd" d="M37.6619 26.6997C34.4047 25.9176 9.58004 26.0133 12.9157 20.816C15.2809 18.0837 52.9038 26.5229 37.6619 26.6997Z" fill="white"/>
<path fill-rule="evenodd" clip-rule="evenodd" d="M58.1105 19.7776C60.9496 20.0765 76.3032 21.6173 72.6054 26.4903C69.3752 27.9335 44.6787 21.5048 58.1105 19.7776Z" fill="white"/>
<path fill-rule="evenodd" clip-rule="evenodd" d="M110.938 49.6652C113.134 47.9753 114.874 51.289 116.883 49.4357C117.668 48.7122 118.679 48.36 119.746 48.4768C122.314 49.5458 116.828 51.8127 118.948 53.2538C119.81 54.2156 121.892 54.8537 121.605 56.3793C120.385 57.9312 118.341 55.2784 117.063 54.7352C115.608 53.467 114.533 55.4499 113.279 55.9855C112.462 56.4087 110.307 56.5788 110.837 55.1001C112.882 52.6244 114.25 51.9705 110.938 49.6652Z" fill="white"/>
<path fill-rule="evenodd" clip-rule="evenodd" d="M27.4566 57.1921C27.1138 53.4254 32.5639 52.8578 34.2184 55.6289C36.5996 60.0069 27.3533 62.2181 27.4566 57.1921Z" fill="white"/>
<path fill-rule="evenodd" clip-rule="evenodd" d="M21.3899 53.9603C25.403 54.0798 22.1136 62.3742 18.7945 59.4503C16.0951 57.4093 18.1783 53.3242 21.3899 53.9603Z" fill="white"/>
<path fill-rule="evenodd" clip-rule="evenodd" d="M43.2633 56.2564C43.2055 58.1992 40.2534 59.5495 38.9919 57.7383C37.0043 53.8788 42.5838 51.581 43.2633 56.2564Z" fill="white"/>
<path fill-rule="evenodd" clip-rule="evenodd" d="M109.671 85.9612C118.168 85.6383 110.416 77.7842 106.5 76.4509C100.601 75.5911 103.974 86.8009 109.671 85.9612ZM110.605 90.9232C103.507 91.4543 97.8593 86.2768 98.7602 79.4364C97.1024 67.8981 113.12 71.032 117.841 77.3674C122.724 83.4588 118.371 91.7175 110.605 90.9232Z" fill="white"/>
<path fill-rule="evenodd" clip-rule="evenodd" d="M117.432 153.388C117.436 153.442 117.44 153.497 117.444 153.551C123.126 153.18 127.041 155.618 124.099 147.835C119.675 126.082 118.277 131.236 98.6612 133.296C95.8175 134.873 97.5726 147.509 97.035 151.23C97.3527 153.584 97.7189 155.437 100.447 155.022C106.114 154.592 111.77 153.911 117.432 153.388ZM90.7505 139.057C90.5744 133.4 91.3737 129.045 97.7766 128.711C104.169 128.388 111.358 126.617 117.419 129.171C118.422 130.163 119.533 130.319 120.878 130.249C126.419 128.71 129.744 152.277 128.157 155.792C127.675 157.2 126.04 156.907 124.855 156.935C118.922 156.698 113.093 157.734 107.229 158.344C89.6824 162.159 91.2945 152.93 90.7505 139.057Z" fill="white"/>
<path fill-rule="evenodd" clip-rule="evenodd" d="M33.6218 142.843C34.5213 138.155 37.1939 133.138 41.8209 131.3C46.6496 128.843 47.8862 140.107 52.1237 137.354C63.1813 121.977 60.6959 137.509 65.768 135.512C68.1255 133.518 72.7383 127.224 75.5194 131.489C75.7048 133.762 77.6767 136.649 76.5275 138.694C74.8886 139.113 73.7405 137.301 73.0716 136.059C70.3655 134.489 66.4421 144.28 62.0847 139.65C60.8045 138.889 59.8543 135.18 58.0999 136.668C48.2949 152.074 45.1583 132.694 41.367 137.332C39.332 139.082 36.2341 147.866 33.6218 142.843Z" fill="white"/>
<path fill-rule="evenodd" clip-rule="evenodd" d="M65.2451 149.739C67.7198 150.181 73.4406 148.432 73.9184 151.632C73.8377 152.275 73.3767 152.63 72.2686 152.682C61.3347 152.654 50.4351 154.025 39.5018 153.728C35.2887 150.042 62.5689 150.079 65.2434 149.567L65.2451 149.739Z" fill="white"/>
<path fill-rule="evenodd" clip-rule="evenodd" d="M57.3173 158.715C76.9384 159.119 47.7551 163.297 43.1411 161.467C41.5682 158.936 55.3254 158.792 57.3173 158.733C57.3173 158.727 57.3173 158.721 57.3173 158.715Z" fill="white"/>
<path fill-rule="evenodd" clip-rule="evenodd" d="M116.929 146.517C117.265 152.936 101.761 147.645 106.828 144.959C109.97 146.654 112.913 146.9 115.746 144.425C117.043 144.08 116.775 145.641 116.929 146.517Z" fill="white"/>
<path fill-rule="evenodd" clip-rule="evenodd" d="M111.497 138.051C111.754 132.284 119.885 138.837 116.684 140.556C114.192 141.686 111.423 141.439 111.497 138.051Z" fill="white"/>
<path fill-rule="evenodd" clip-rule="evenodd" d="M102.372 138.79C102.006 136.146 106.091 136.629 106.526 138.569C106.944 141.456 102.05 141.848 102.372 138.79Z" fill="white"/>
</svg>
