<svg width="200" height="197" viewBox="0 0 200 197" fill="none" xmlns="http://www.w3.org/2000/svg">
<path fill-rule="evenodd" clip-rule="evenodd" d="M79.6601 148.668C78.3409 156.837 81.6224 165.952 82.8024 174.397C83.776 178.799 82.3079 181.24 77.8926 182.151C76.8999 186.3 76.8013 194.438 70.7052 192.828C70.2974 192.766 69.6954 192.34 69.6192 191.988C67.6327 188.394 67.7633 179.54 62.4814 179.971C55.546 179.983 50.282 172.991 43.5041 172.456C38.8737 171.731 36.4047 165.911 32.6313 163.295C29.6539 160.492 22.06 160.162 24.6214 154.368C27.1934 149.084 25.5443 142.478 26.7779 136.727C27.537 133.316 24.2926 130.234 26.6125 127.237C28.1436 125.264 24.62 126.06 24.3465 124.592C22.9846 122.247 24.1492 120.111 25.6136 118.082C22.6883 111.598 24.8385 112.61 25.6292 105.964C25.7946 104.17 28.2394 104.695 29.4731 104.576C31.672 103.834 32.5221 106.369 34.7148 106.302C44.0211 108.269 37.9067 108.078 41.9587 109.902C43.8229 109.807 43.1641 113.038 46.3735 113.865C48.6757 113.166 53.4266 109.467 55.0872 112.787C55.124 113.712 55.7234 114.059 56.4497 114.221C60.2981 115.084 63.0737 117.65 65.6063 120.357C70.3316 125.127 73.9444 130.82 77.9787 136.077C81.1379 139.585 79.114 143.911 79.6601 148.668Z" fill="#FF3B54"/>
<path fill-rule="evenodd" clip-rule="evenodd" d="M94.5487 106.299C84.4177 106.021 75.2286 103.346 65.4116 101.48C60.1445 100.727 54.9059 98.4163 49.5498 99.2507C46.8695 99.8601 45.1861 97.1904 42.5776 97.1527C41.9252 97.0717 41.2647 96.8359 41.3058 96.0805C41.5043 94.6458 43.1973 94.583 43.6054 93.1441C44.0908 91.8445 45.4753 91.3013 46.7916 90.9445C58.1717 87.8162 69.8081 85.698 80.9766 81.8088C87.029 80.7802 128.728 60.762 120.601 77.6441C116.511 79.7895 115.374 84.6711 112.408 87.9525C110.534 91.3948 105.706 93.9651 105.903 98.0964C106.029 98.4417 105.467 99.3828 105.045 99.5251C100.819 100.995 99.868 107.569 94.5487 106.299Z" fill="#FFC540"/>
<path fill-rule="evenodd" clip-rule="evenodd" d="M134.301 134.118C143.734 133.197 142.395 154.518 134.818 155.609C126.922 156.657 135.182 152.678 121.265 152.047C118.459 151.835 119.851 148.457 117.665 147.265C116.577 146.533 116.638 144.828 117.306 143.616C118.093 142.187 119.302 141.196 120.768 140.658C125.522 139.021 129.017 133.94 134.301 134.118Z" fill="#42C7FF"/>
<path fill-rule="evenodd" clip-rule="evenodd" d="M23.9695 85.8162C22.6626 93.801 11.0196 90.8523 5.58595 94.0323C3.57692 95.082 2.06466 94.4281 0.520168 93.2643C-2.71197 88.9716 10.0577 84.858 12.9867 83.0794C14.6022 82.2673 12.2747 80.5605 11.8247 79.5801C10.0768 77.2887 9.52218 74.3706 7.32436 72.3062C4.2562 69.2324 9.42493 66.8526 11.1388 69.8609C16.5077 73.7021 23.5489 78.3995 23.9695 85.8162Z" fill="#3F5EFF"/>
<path fill-rule="evenodd" clip-rule="evenodd" d="M87.7922 19.9551C83.4742 20.3597 80.4009 17.7014 77.1151 15.6322C74.6278 13.5339 77.5109 11.1558 73.9759 8.40678C71.3495 4.54099 76.9628 2.33776 80.0287 3.67378C83.9769 4.52074 88.0614 2.09821 91.6437 5.17436C94.8317 7.34394 92.24 11.5958 92.7639 14.7413C92.6048 17.8117 91.4227 20.6013 87.7922 19.9551Z" fill="#42C7FF"/>
<path fill-rule="evenodd" clip-rule="evenodd" d="M135.787 54.8175C131.813 41.8733 145.731 38.0862 145.565 46.4069C146.594 48.842 152.554 44.9004 152.106 50.3426C151.812 53.8821 149.633 59.3272 145.542 59.2037C144.357 58.9767 143.809 59.5162 143.569 60.5851C143.02 62.9372 141.568 63.694 139.39 62.3543C135.403 62.4692 135.514 57.1736 135.787 54.8175Z" fill="#FFC540"/>
<path fill-rule="evenodd" clip-rule="evenodd" d="M98.8877 46.2122C99.494 36.8206 111.199 38.6526 112.285 46.6687C113.331 55.5686 98.9818 54.3299 98.8877 46.2122Z" fill="#3F5EFF"/>
<path fill-rule="evenodd" clip-rule="evenodd" d="M52.8223 28.4926C49.5654 28.4629 42.6981 25.3047 45.1743 21.0593C47.1277 18.5966 50.3661 18.6539 52.741 16.7224C58.1245 15.4326 62.935 28.4136 52.8223 28.4926Z" fill="#3F5EFF"/>
<path fill-rule="evenodd" clip-rule="evenodd" d="M124.186 8.08078C126.121 7.65958 126.917 9.38601 128.075 10.5461C130.631 11.9899 130.315 14.1056 129.434 16.4605C128.922 20.2642 126.964 19.8729 124.333 19.2207C122.748 18.4721 119.523 18.2893 119.425 16.1252C119.706 13.1069 119.972 7.69551 124.186 8.08078Z" fill="#3F5EFF"/>
<path fill-rule="evenodd" clip-rule="evenodd" d="M192.993 155.633C186.869 155.407 189.229 145.961 194.036 144.803C200.827 141.914 203.46 156.468 192.993 155.633Z" fill="#3F5EFF"/>
<path fill-rule="evenodd" clip-rule="evenodd" d="M169.593 185.287C168.195 190.854 162.634 194.617 158.839 188.535C156.675 181.978 168.902 177.563 169.593 185.287Z" fill="#3F5EFF"/>
<path fill-rule="evenodd" clip-rule="evenodd" d="M34.1244 96.337C29.5278 97.0873 33.1842 98.881 35.3107 100.08C38.7687 102.144 42.0639 104.482 45.7266 106.206C51.2148 108.703 56.2378 112.119 60.1977 116.701C61.1658 117.786 61.4769 117.723 62.3228 116.626C63.3106 114.407 72.5698 105.567 70.5594 104.407C58.0997 102.708 46.887 96.8739 34.1244 96.337ZM44.1089 93.3107C44.5369 94.2521 45.3422 94.2404 46.0192 94.2635C50.6153 94.6499 55.6677 95.4561 59.9148 96.9789C60.9887 98.1601 62.2053 98.0882 63.5302 98.1022C66.8173 98.4087 69.9463 99.5742 73.2922 99.6817C80.4426 100.451 87.5975 101.986 94.6464 103.497C98.4839 104.807 98.3165 105.54 100.807 101.049C103.482 96.2258 106.648 91.7742 110.637 87.9238C133.57 65.5615 106.343 75.6837 92.8495 78.7775C76.3535 82.7659 60.2712 88.2481 44.1089 93.3107ZM79.1579 163.586C79.21 163.587 79.2622 163.588 79.3147 163.589C79.4459 156.243 79.5477 148.896 79.8055 141.553C80.0074 138.588 76.1057 138.014 74.9584 135.557C71.4294 130.586 64.6133 130.017 60.529 125.623C54.0183 117.988 45.1534 113.865 36.5957 109.141C34.0894 107.898 32.0823 105.138 29.3792 104.7C28.6009 110.574 30.0673 116.6 29.8506 122.558C29.6364 130.511 28.964 138.458 28.8605 146.42C29.2748 151.005 27.2829 158.31 31.8642 161.038C42.1101 165.897 52.0358 171.649 61.394 178.059C66.4298 181.884 72.3722 184.214 77.8255 187.368C79.2574 187.752 78.6922 185.521 78.8345 184.695C78.9448 177.658 79.0506 170.622 79.1579 163.586ZM85.4225 165.706C85.3156 165.707 85.2089 165.707 85.1023 165.708C85.927 168.602 82.4736 194.24 86.957 189.911C102.783 178.79 122.132 174.443 139.125 166.059C145.946 163.638 151.69 158.247 159.041 157.108C160.459 157.112 160.467 157.02 160.692 155.471C161.819 143.829 170.114 108.997 155.681 104.954C141.738 101.896 127.946 98.1002 113.961 95.2479C111.451 90.6301 128.117 93.0601 130.424 93.9595C136.559 95.429 142.635 97.1779 148.788 98.5519C149.141 98.5981 149.133 98.1239 149.024 97.9468C145.522 95.2422 141.592 93.0584 137.971 90.4955C122.054 81.3715 126.099 75.6541 118.613 86.5274C114.324 91.3034 109.9 95.9896 106.581 101.536C103.939 105.156 101.538 111.315 96.0566 108.853C90.1293 106.222 83.5273 106.329 77.2121 105.292C73.534 106.196 72.2966 111.648 69.5573 114.2C67.1447 116.263 67.7912 118.839 65.3333 120.756C64.1755 123.419 77.0599 127.148 78.5305 131.854C80.2104 134.183 83.3824 137.123 86.458 136.046C103.086 129.563 120.614 125.281 137.552 119.547C143.61 117.769 149.77 116.294 155.387 113.263C156.609 112.341 160.318 112.888 159.121 114.925C154.62 118.625 148.575 119.598 143.232 121.636C124.312 128.335 104.896 133.719 86.1292 140.753C84.5419 141.289 85.0592 142.975 85.0789 144.271C85.1967 151.416 85.3087 158.561 85.4225 165.706ZM160.563 160.686C158.349 164.114 155.262 164.79 152.677 166.222C143.587 171.179 134.092 175.411 124.245 178.635C110.931 183.395 97.9826 189.368 85.3595 195.692C83.7192 196.312 80.209 197.223 81.0394 194.197C71.1528 191.194 60.346 184.628 50.8957 178.752C42.9887 175.136 36.2002 169.195 27.7779 166.777C26.6661 166.511 25.0372 165.89 25.1498 164.555C22.293 144.451 24.9927 124.097 23.9019 103.825C24.2441 99.5514 22.2097 97.4757 27.582 95.784C55.1712 85.0285 83.1722 75.2403 112.24 69.3292C113.148 69.1179 114.037 68.9423 114.645 68.0802C117.54 66.1191 120.928 70.5272 123.312 71.9922C124.416 73.26 126.967 72.6626 127.042 74.6283C128.063 77.2339 131.396 78.4464 133.411 80.3163C137.549 83.2487 141.897 85.8692 145.768 89.2014C151.253 93.2608 157.5 96.3532 161.176 102.4C161.885 103.194 162.672 103.862 163.872 103.338C165.682 104.145 167.746 105.873 168.628 108.109C174.175 124.754 169.255 141.717 168.324 158.559C168.93 166.854 160.916 167.312 160.563 160.686Z" fill="white"/>
<path fill-rule="evenodd" clip-rule="evenodd" d="M24.4147 85.9793C20.444 80.6868 16.6041 75.0367 11.8244 70.6166C7.66143 69.3667 7.53282 71.8405 10.1883 74.342C24.7572 88.1985 11.7585 80.8961 4.99679 90.1146C4.7678 90.9456 5.62702 90.8994 6.19936 90.6921C12.4155 89.2106 18.2618 88.0212 24.4147 85.9793ZM10.7376 82.5008C7.22997 77.871 -0.566051 71.9155 6.43776 66.1733C13.9634 64.1842 18.7549 71.6862 23.3419 76.4663C25.1884 78.4745 36.7187 92.0124 28.8018 90.5943C27.2356 89.8035 25.8745 89.9136 24.3605 90.4425C17.4941 92.5465 10.3606 94.5693 3.16855 94.8097C-5.34381 92.1216 5.40658 82.2365 10.7376 82.5008Z" fill="white"/>
<path fill-rule="evenodd" clip-rule="evenodd" d="M56.4847 46.1585C53.1068 45.9763 53.7553 48.3329 55.853 49.6288C58.2747 50.537 65.5634 57.7222 67.206 55.7297C70.6879 47.0668 72.661 41.8134 61.4184 48.0247C59.6062 49.1694 58.2299 45.5354 56.4847 46.1585ZM74.7736 45.8856C74.3339 51.4054 71.199 56.723 70.4535 62.2122C70.4475 63.5289 69.2068 64.3972 67.8396 64.2515C65.2888 63.3173 65.8534 59.9685 61.78 58.6014C57.424 55.7138 50.141 53.0793 49.6833 47.1794C49.774 44.478 51.9901 42.5768 54.677 42.9016C57.0585 42.601 59.1833 45.8982 61.2727 44.0936C65.3358 39.9153 75.7101 36.6749 74.7736 45.8856Z" fill="white"/>
<path fill-rule="evenodd" clip-rule="evenodd" d="M96.4402 4.76537C96.0798 8.26328 89.7552 29.6086 85.0995 25.0145C85.2133 19.8361 80.6936 18.3407 76.8815 16.1021C72.7659 14.2148 66.0609 6.05548 73.6339 4.32193C75.5614 4.14854 79.0872 4.04075 79.9453 6.1148C78.6401 7.29085 72.9872 5.93799 74.9543 9.19551C76.4009 10.7212 86.2987 18.8574 87.5209 16.5176C91.1158 7.93619 96.0435 0.817739 82.7195 8.25045C81.3723 8.97222 81.2591 6.63381 81.8996 5.94797C84.7388 1.6915 96.5147 -4.0413 96.4402 4.76537Z" fill="white"/>
<path fill-rule="evenodd" clip-rule="evenodd" d="M139.576 46.3722C138.324 50.0138 141.424 54.3245 142.052 58.085C142.624 60.9054 150.156 50.4393 150.194 49.3089C148.985 48.9912 147.788 48.9182 146.76 49.8233C144.07 51.576 142.436 46.4589 139.576 46.3722ZM136.07 51.2075C132.356 45.8318 136.535 38.6169 142.389 44.2879C144.472 47.6546 147.664 45.6957 150.689 45.0019C154.214 43.8741 157.483 47.6478 155.722 50.9363C153.697 53.9888 151.49 57.0022 149.342 60.0025C137.781 76.0266 138.579 60.3427 135.929 50.1019C135.496 50.4775 135.896 50.8183 136.07 51.2075Z" fill="white"/>
<path fill-rule="evenodd" clip-rule="evenodd" d="M137.732 140.514C137.23 131.476 127.783 146.207 125.226 144.019C123.261 141.215 116.032 142.59 119.488 146.295C123.004 148.268 127.059 149.083 130.493 151.195C131.563 151.805 133.268 153.039 133.855 151.304C135.182 147.811 137.342 144.233 137.732 140.514ZM142.972 140.352C143.477 145.907 140.112 150.846 138.463 155.971C137.574 158.567 134.794 159.784 132.594 157.818C127.951 153.376 120.986 153.436 116.273 149.231C109.411 143.376 117.671 134.738 124.553 139.178C126.751 140.57 128.072 136.545 129.966 135.718C134.606 131.436 144.473 132.474 142.972 140.352Z" fill="white"/>
<path fill-rule="evenodd" clip-rule="evenodd" d="M55.2997 146.981C56.0007 144.538 55.5512 139.859 58.5133 138.278C64.7198 134.992 61.3357 157.655 57.7513 152.987C55.4172 151.371 55.2612 150.055 55.2997 146.981Z" fill="white"/>
<path fill-rule="evenodd" clip-rule="evenodd" d="M44.6487 136.908C44.4408 139.444 43.962 148.068 39.9736 145.191C38.0692 142.131 39.1195 138.304 39.8855 135.021C41.576 131.023 45.2476 133.101 44.6487 136.908Z" fill="white"/>
<path fill-rule="evenodd" clip-rule="evenodd" d="M46.3926 158.133C48.9951 158.482 51.352 159.056 53.0679 161.085C52.6561 166.459 36.1655 159.96 46.3926 158.133Z" fill="white"/>
</svg>
