<svg width="200" height="157" viewBox="0 0 200 157" fill="none" xmlns="http://www.w3.org/2000/svg">
<path fill-rule="evenodd" clip-rule="evenodd" d="M88.0881 58.9949C87.9273 67.0881 90.1528 74.7643 95.58 80.4904C99.5215 85.3363 101.452 92.6348 107.953 94.1345C128.145 103.505 157.525 92.0767 162.025 67.1198C165.224 55.3792 156.39 47.1288 150.283 39.0359C144.66 30.9784 135.541 28.5162 126.897 26.7569C122.986 27.2232 117.936 27.2854 114.805 30.0532C114.157 30.9357 113.182 31.2264 112.442 30.6117C109.979 28.9449 107.736 31.9714 105.462 32.768C96.2255 37.8787 87.5681 46.8701 88.0881 58.9949ZM80.27 62.3252C79.7469 40.8446 93.068 28.3264 111.15 24.2578C120.995 16.6803 136.232 19.4922 146.831 25.0562C151.734 28.1014 156.178 31.8943 158.956 37.3614C161.308 41.3182 164.992 44.3239 166.039 49.1135C173.579 68.8936 160.099 92.0852 142.328 98.4794C131.18 104.203 118.744 104.512 107.048 100.82C101.922 99.7439 96.2996 97.7672 93.47 92.629C86.1969 80.6396 80.4797 78.2081 80.27 62.3252Z" fill="#FF3C54"/>
<path fill-rule="evenodd" clip-rule="evenodd" d="M50.5037 47.6647C50.2999 50.5239 49.7804 52.9741 46.9009 50.4016C43.4395 52.1055 39.7768 58.9873 35.6085 55.0607C33.1919 53.757 29.8106 45.277 27.3397 49.2765C19.1125 69.4229 15.2442 47.6399 10.4527 50.6216C7.68427 53.1035 6.30887 57.5702 2.83819 58.9142C-3.83082 57.169 3.00923 48.3783 5.54519 45.1761C16.5171 34.1012 17.7515 51.5131 21.1189 47.9178C22.6845 44.2637 25.4739 41.754 28.972 40.6046C33.3466 39.5857 34.882 46.5634 38.3698 48.4962C41.1272 50.9459 49.9945 35.0675 50.5037 47.6647Z" fill="#3BC5FF"/>
<path fill-rule="evenodd" clip-rule="evenodd" d="M25.4498 101.335C26.958 101.124 28.4903 102.011 29.7697 103.484C34.3256 109.83 32.9407 96.9321 42.0373 98.5076C48.0848 99.858 44.9124 104.442 52.7551 101.401C58.844 102.055 48.8367 116.797 42.89 106.17C38.7878 102.657 38.0089 115.234 33.008 114.364C30.4231 114.752 28.7225 112.352 26.8939 110.787C22.4193 107.081 18.8363 116.252 14.4309 117.015C12.8859 117.719 11.7523 116.845 11.0067 115.593C6.93851 109.165 20.1444 101.276 25.4498 101.335Z" fill="#3BC5FF"/>
<path fill-rule="evenodd" clip-rule="evenodd" d="M18.1451 73.9753C21.8174 74.1283 26.0326 84.2107 26.9285 80.4997C27.7927 78.4831 29.3022 77.1046 30.7747 75.7496C37.0207 69.6643 40.7727 81.1206 44.0337 78.8239C46.062 76.3246 47.3277 76.8249 48.8081 79.2529C49.389 80.1031 49.7954 82.36 48.4435 82.3728C46.831 82.325 46.1172 83.4464 45.2858 84.617C40.958 90.2498 36.3693 76.6164 32.1582 82.6008C24.2011 100.849 20.4738 78.5703 15.9762 84.1124C13.0634 86.3619 10.6669 92.9667 6.65103 89.5451C0.317736 86.4153 14.5841 74.5308 18.1451 73.9753Z" fill="#3BC5FF"/>
<path fill-rule="evenodd" clip-rule="evenodd" d="M175.475 139.431C176.055 133.733 182.688 124.558 188.498 129.26C190.768 130.614 183.518 143.294 181.252 142.578C180.886 142.56 180.443 142.976 180.135 143.304C177.896 145.576 174.323 142.362 175.475 139.431Z" fill="#3BC5FF"/>
<path fill-rule="evenodd" clip-rule="evenodd" d="M164.168 98.353C163.23 103.153 159.957 108.71 155.021 109.063C150.148 109.174 152.241 101.954 153.299 98.916C153.892 93.9846 164.837 92.4532 164.168 98.353Z" fill="#3BC5FF"/>
<path fill-rule="evenodd" clip-rule="evenodd" d="M163.007 121.268C162.503 117.499 166.95 116.508 168.928 114.314C171.058 112.449 173.284 113.197 175.513 113.851C178.694 118.165 171.883 123.215 169.503 126.423C167.028 128.342 162.308 124.827 163.007 121.268Z" fill="#3BC5FF"/>
<path fill-rule="evenodd" clip-rule="evenodd" d="M178.401 142.371C179.608 137.969 182.38 135.299 186.473 134.43C188.318 133.765 185.16 129.055 183.823 130.798C181.452 132.938 173.165 139.691 178.401 142.371ZM157.963 106.913C158.947 105.526 164.238 103.025 163.337 101.57C161.625 99.9597 158.753 95.5798 156.512 98.3938C156.222 99.2 157.77 99.6145 156.371 100.025C153.337 100.966 153.306 100.991 155.057 103.727C155.919 104.828 156.715 106.329 157.963 106.913ZM168.53 125.22C170.543 122.732 172.327 120.025 175.197 118.555C175.83 118.187 176.185 117.578 175.653 116.958C174.539 115.92 173.578 112.959 171.868 114.546C168.407 116.991 162.998 121.667 168.53 125.22ZM192.336 144.536C191.543 142.206 190.611 137.711 187.506 139.545C184.827 141.24 181.128 144.246 181.541 147.951C182.01 149.126 183.087 148.321 183.778 147.893C186.331 145.882 189.797 145.967 192.336 144.536ZM171.017 111.133C169.981 109.579 167.257 104.286 165.295 106.086C163.766 108.057 158.996 109.66 160.654 112.737C161.508 114.025 162.56 118.185 164.348 116.236C166.111 113.87 169.621 113.536 171.017 111.133ZM174.209 135.423C181.157 124.707 186.159 129.496 179.387 121.665C177.425 119.349 174.441 125.526 172.657 126.648C171.78 127.79 169.93 128.986 170.835 130.693C171.85 132.313 172.26 134.879 174.209 135.423ZM158.572 58.8135C159.405 48.5397 152.721 39.285 146.057 32.7478C137.131 25.1837 123.838 24.6119 113.579 29.248C95.3351 36.3504 82.6257 58.2812 92.9142 78.2973C96.6144 88.4371 104.953 93.4998 114.207 96.1195C138.804 102.157 158.398 86.8238 158.572 58.8135ZM150.306 98.7902C148.996 97.5284 148.354 94.168 146.425 94.8876C136.055 101.198 123.144 102.611 111.86 98.5489C89.9427 92.8637 80.0991 62.4195 92.2398 42.2101C105.405 17.5015 143.514 12.969 157.408 39.1724C167.963 54.1736 162.534 76.3404 152.039 89.6981C150.724 90.8331 150.933 92.1083 151.916 93.4312C154.339 99.2299 156.122 86.6116 164.802 96.1379C168.063 99.4498 170.915 103.178 173.364 107.239C178.094 115.495 184.864 122.034 189.159 130.605C189.936 133.882 196.141 136.345 193.991 138.156C192.741 139.959 194.882 142.103 195.212 144.002C195.82 145.748 197.879 145.704 199.049 146.839C203.095 152.136 193.172 156.763 189.066 156.077C186.757 155.529 183.738 156.873 181.907 154.903C176.228 146.368 170.94 137.417 165.531 128.584C161.913 122.708 157.462 117.521 154.343 111.273C153.003 107.512 146.291 102.434 150.306 98.7902Z" fill="white"/>
<path fill-rule="evenodd" clip-rule="evenodd" d="M69.6638 103.557C68.3429 99.5096 84.5482 82.7795 84.1464 91.2757C82.16 93.2647 71.2882 109.456 69.6638 103.557Z" fill="white"/>
<path fill-rule="evenodd" clip-rule="evenodd" d="M71.3862 60.8154C79.5962 62.4947 56.6123 71.9143 54.2628 71.4039C49.8141 68.1147 68.6806 60.6678 71.3862 60.8154Z" fill="white"/>
<path fill-rule="evenodd" clip-rule="evenodd" d="M175.858 11.9749C174.153 17.6305 165.886 26.5318 160.394 27.0232C156.197 23.5779 172.725 11.9304 175.858 11.9749Z" fill="white"/>
<path fill-rule="evenodd" clip-rule="evenodd" d="M138.588 113.754C138.413 117.695 137.891 128.755 133.371 120.715C129.805 109.451 138.185 101.096 138.588 113.754Z" fill="white"/>
<path fill-rule="evenodd" clip-rule="evenodd" d="M61.224 28.1447C65.1879 28.8884 68.825 31.582 71.9494 34.2778C73.9997 35.4243 75.5339 40.4787 71.8878 39.4761C69.2498 37.7135 66.6641 35.8591 64.046 34.0624C62.5409 33.0421 61.0025 32.1076 59.2483 31.6559C56.463 29.7957 58.7083 27.9186 61.224 28.1447Z" fill="white"/>
<path fill-rule="evenodd" clip-rule="evenodd" d="M105.105 110.288C103.958 114.314 101.266 120.842 97.2952 121.935C93.3413 120.778 103.412 101.136 105.105 110.288Z" fill="white"/>
<path fill-rule="evenodd" clip-rule="evenodd" d="M94.1074 25.1509C87.7803 26.0398 84.0876 8.17619 91.4704 13.9543C93.403 16.8001 92.9738 20.8895 95.1554 23.4369C96.2017 24.2996 94.9242 25.2248 94.1074 25.1509Z" fill="white"/>
<path fill-rule="evenodd" clip-rule="evenodd" d="M119.79 11.9134C118.651 20.8496 110.986 2.68651 113.899 0.249931C117.614 -0.922448 119.465 8.76756 119.79 11.9134Z" fill="white"/>
<path fill-rule="evenodd" clip-rule="evenodd" d="M188.975 79.1446C188.627 79.5269 188.367 80.2407 187.799 80.1248C185.122 79.2124 182.368 79.8192 179.655 79.6612C168.485 77.0617 181.675 70.4628 188.975 79.1446Z" fill="white"/>
<path fill-rule="evenodd" clip-rule="evenodd" d="M180.689 52.8418C179.014 53.3092 175.117 51.0194 177.969 49.6863C181.721 49.2264 186.478 49.2921 189.755 50.9679C186.954 52.1184 183.66 52.1128 180.689 52.8418Z" fill="white"/>
<path fill-rule="evenodd" clip-rule="evenodd" d="M142.348 9.96723C142.192 7.45884 143.937 0.195535 146.533 4.64187C146.731 7.86485 142.764 19.4787 142.348 9.96723Z" fill="white"/>
<path fill-rule="evenodd" clip-rule="evenodd" d="M123.384 66.8885C114.179 55.8064 117.294 46.8585 112.316 52.8835C108.809 57.6752 107.999 63.8486 106.747 69.6496C106.142 73.5597 121.731 68.5109 123.384 66.8885ZM132.958 60.7129C138.629 57.1854 142.903 49.8567 141.978 42.6113C137.229 39.5386 129.583 41.3962 124.42 43.6491C123.624 44.0017 123.59 44.4907 124.311 45.1533C128.743 49.2403 131.21 54.7637 132.958 60.7129ZM108.572 74.2959C102.66 75.2382 104.908 71.8975 104.88 67.3097C105.343 64.2536 101.307 66.0837 99.8888 64.6246C98.1892 62.3839 102.139 61.6891 103.556 61.7897C105.55 61.8824 105.949 61.6763 106.375 59.2912C106.735 57.8725 107.564 56.2909 107.481 54.8486C106.99 53.5038 104.149 52.6104 102.943 51.5469C101.9 51.004 102.522 49.3095 103.521 49.2419C105.777 48.9243 106.927 51.3857 108.9 51.9441C112.213 46.5285 116.495 47.8282 111.779 41.3665C110.938 40.239 111.901 39.3066 112.874 38.6414C114.633 38.5306 115.189 41.3396 116.336 42.4997C117.97 44.3274 120.556 40.8511 122.377 40.2991C124.665 39.1374 119.844 33.7474 122.636 33.0745C126.893 33.2699 124.721 38.2004 127.57 38.3956C129.366 37.6004 135.111 38.5231 135.246 36.2235C134.817 34.1823 133.951 31.8701 135.581 30.2006C136.056 29.5816 137.029 29.7543 137.332 30.5186C137.443 31.9205 138.749 32.72 138.542 34.2057C135.908 40.1282 143.315 36.2705 145.855 38.5485C148.203 40.2387 144.004 41.1698 145.3 43.3221C147.204 62.1717 123.487 74.9598 108.572 74.2959Z" fill="white"/>
</svg>
