<svg width="970" height="431" viewBox="0 0 970 431" fill="none" xmlns="http://www.w3.org/2000/svg">
<path fill-rule="evenodd" clip-rule="evenodd" d="M966.974 424.835L939.633 424.515L910.524 401.126L939.406 401.464H939.442C941.116 401.464 942.483 400.108 942.503 398.418C942.522 396.716 941.168 395.319 939.477 395.3L902.738 394.869L869.238 367.951L893.578 368.236H893.614C895.288 368.236 896.655 366.879 896.674 365.19C896.694 363.488 895.34 362.092 893.649 362.071L861.452 361.694L837.837 342.72L862.414 343.008H862.45C864.125 343.008 865.491 341.651 865.511 339.961C865.53 338.259 864.176 336.863 862.486 336.843L830.05 336.463L811.045 321.191L834.917 321.471H834.953C836.628 321.471 837.994 320.115 838.014 318.425C838.034 316.723 836.68 315.327 834.989 315.307L803.259 314.935L781.912 297.782L808.031 298.089H808.068C809.742 298.089 811.108 296.732 811.128 295.043C811.148 293.34 809.794 291.944 808.103 291.924L774.126 291.526L754.56 275.804L784.201 276.152H784.237C785.911 276.152 787.278 274.795 787.297 273.106C787.317 271.403 785.963 270.007 784.272 269.987L733.216 269.389H733.179C732.617 269.389 732.091 269.545 731.637 269.813H238.363C237.909 269.545 237.383 269.389 236.821 269.389H236.784L185.728 269.987C184.037 270.007 182.684 271.403 182.703 273.106C182.722 274.796 184.089 276.152 185.763 276.152H185.799L199.904 275.986L183.519 291.671L161.897 291.924C160.207 291.944 158.853 293.34 158.872 295.043C158.891 296.733 160.258 298.089 161.932 298.089H161.968L176.999 297.913L159.124 315.024L135.011 315.307C133.32 315.327 131.966 316.723 131.986 318.425C132.005 320.115 133.372 321.471 135.046 321.471H135.083L152.604 321.266L136.688 336.501L107.514 336.843C105.823 336.863 104.469 338.259 104.489 339.961C104.509 341.652 105.875 343.008 107.549 343.008H107.586L130.168 342.743L110.393 361.673L76.3509 362.071C74.6604 362.092 73.3068 363.488 73.3262 365.19C73.3457 366.88 74.7122 368.236 76.3865 368.236H76.4227L103.873 367.915L75.8212 394.768L30.522 395.3C28.8315 395.319 27.478 396.716 27.4974 398.418C27.5168 400.108 28.8834 401.464 30.5576 401.464H30.5938L69.3006 401.01L44.9254 424.344L3.02557 424.835C1.33509 424.855 -0.0190281 426.251 0.000202314 427.954C0.019846 429.644 1.38638 431 3.06067 431H3.09684L38.4054 430.586L38.2126 430.77H947.321L966.903 431H966.939C968.613 431 969.98 429.644 970 427.954C970.019 426.251 968.665 424.855 966.974 424.835Z" fill="#FFF5EE"/>
<path fill-rule="evenodd" clip-rule="evenodd" d="M435.651 237.352L201.915 235.32L220.304 107.786C221.317 100.765 227.296 95.547 234.361 95.5183L416.577 94.7829C420.528 94.7672 424.546 96.7078 428.286 99.5499C430.78 101.445 432.656 103.534 433.915 105.817L435.651 237.352Z" fill="#78BFB1"/>
<path fill-rule="evenodd" clip-rule="evenodd" d="M449.206 93.6213C444.242 93.6213 439.64 96.233 437.074 100.506L433.915 105.765L435.651 237.352L661.865 235.319L645.357 106.138C644.443 98.981 638.386 93.6213 631.213 93.6213H449.206Z" fill="#78BFB1"/>
<path fill-rule="evenodd" clip-rule="evenodd" d="M213.565 153.425L133.545 183.671C128.017 185.761 124.311 191.037 124.193 196.987L122.075 303.643C121.986 308.218 125.64 311.976 130.18 311.976H731.864C736.57 311.976 740.287 307.95 739.949 303.219L731.887 190.55C731.533 185.594 728.69 181.164 724.351 178.805L648.842 137.757L661.023 235.502H201.94L213.565 153.425Z" fill="#78BFB1"/>
<path fill-rule="evenodd" clip-rule="evenodd" d="M180.509 311.395L166.337 357.977C165.729 359.974 163.896 361.338 161.818 361.338C157.769 361.338 154.627 357.785 155.1 353.742L160.055 311.395H180.509ZM699.098 311.395L704.053 353.742C704.526 357.785 701.383 361.338 697.334 361.338C695.256 361.338 693.423 359.974 692.815 357.977L678.643 311.395H699.098Z" fill="#CDB1AA"/>
<path fill-rule="evenodd" clip-rule="evenodd" d="M276.839 152.856C279.555 152.856 281.756 155.326 281.756 158.373C281.756 161.42 279.555 163.89 276.839 163.89C274.123 163.89 271.921 161.42 271.921 158.373C271.921 155.326 274.123 152.856 276.839 152.856ZM356.1 152.856C358.816 152.856 361.018 155.326 361.018 158.373C361.018 161.42 358.816 163.89 356.1 163.89C353.384 163.89 351.182 161.42 351.182 158.373C351.182 155.326 353.384 152.856 356.1 152.856ZM499.582 152.856C502.298 152.856 504.499 155.326 504.499 158.373C504.499 161.42 502.298 163.89 499.582 163.89C496.866 163.89 494.664 161.42 494.664 158.373C494.664 155.326 496.866 152.856 499.582 152.856ZM578.265 152.856C580.981 152.856 583.182 155.326 583.182 158.373C583.182 161.42 580.981 163.89 578.265 163.89C575.549 163.89 573.347 161.42 573.347 158.373C573.347 155.326 575.549 152.856 578.265 152.856Z" fill="#2F6858"/>
<path fill-rule="evenodd" clip-rule="evenodd" d="M269.506 249.307L178.143 267.128C167.667 268.357 158.18 260.843 156.953 250.344L147.084 165.913C145.857 155.414 153.354 145.905 163.83 144.674L255.194 126.855C265.669 125.624 275.157 133.139 276.384 143.638L286.253 228.069C287.48 238.569 279.982 248.077 269.506 249.307Z" fill="#F4F0F0"/>
<path fill-rule="evenodd" clip-rule="evenodd" d="M153.895 225.447L224.479 259.008L209.21 262.033L155.148 236.327L153.895 225.447ZM283.142 201.637L284.648 214.602L255.048 252.359L241.257 255.064L283.142 201.637ZM279.084 167.374L280.599 180.293L230.67 243.45L151.682 206.56L150.424 195.82L227.966 232.035L279.084 167.374ZM273.428 135.434C274.881 137.757 275.857 140.428 276.196 143.329L276.549 146.336L223.172 213.832L148.213 178.836L146.953 168.086L220.465 202.408L273.428 135.434ZM254.984 126.853C256.816 126.637 258.617 126.695 260.349 126.985L217.241 181.892L151.581 151.015C154.039 148.257 157.292 146.203 161.033 145.239L214.538 170.4L247.589 128.302L254.984 126.853ZM226.215 132.53L209.861 153.436L183.402 140.947L198.586 137.962L207.186 142.021L212.502 135.226L226.215 132.53Z" fill="#5BA092"/>
<path fill-rule="evenodd" clip-rule="evenodd" d="M434.205 104.945C434.684 104.945 435.072 105.335 435.072 105.817L435.072 235.207L594.526 234.448C595.005 234.446 595.398 234.834 595.398 235.315C595.398 235.796 595.014 236.188 594.534 236.19L286.388 237.657C285.909 237.659 285.516 237.271 285.516 236.79C285.516 236.309 285.901 235.917 286.38 235.915L433.336 235.215L433.337 105.817C433.337 105.335 433.725 104.945 434.205 104.945Z" fill="#2F6858"/>
<path fill-rule="evenodd" clip-rule="evenodd" d="M644.451 214.416C639.329 214.416 635.176 210.165 635.176 204.92C635.176 199.676 639.329 195.425 644.451 195.425C649.574 195.425 653.725 199.676 653.725 204.92C653.725 210.165 649.574 214.416 644.451 214.416ZM625.39 249.697C621.178 251.139 616.426 248.368 614.773 243.507C613.121 238.645 615.195 233.535 619.406 232.092C623.618 230.65 628.371 233.422 630.024 238.284C631.676 243.145 629.601 248.255 625.39 249.697ZM678.212 240.856C680.955 240.856 683.449 241.868 685.305 243.519C686.166 241.202 686.643 238.692 686.643 236.059V187.363C686.643 182.036 684.688 177.13 681.432 173.363C680.58 179.929 675.063 184.998 668.38 184.998C661.106 184.998 655.21 178.996 655.21 171.593C655.21 169.167 655.846 166.894 656.952 164.931L627.367 161.653C627.373 161.801 627.386 161.947 627.386 162.096C627.386 166.93 624.064 170.848 619.966 170.848C615.868 170.848 612.546 166.93 612.546 162.096C612.546 161.386 612.626 160.697 612.762 160.035L606.811 159.376C594.203 157.979 583.183 167.888 583.183 180.619V186.074C584.101 185.858 585.049 185.743 586.021 185.743C594.114 185.743 600.674 193.578 600.674 203.245C600.674 212.911 594.114 220.747 586.021 220.747C585.049 220.747 584.101 220.631 583.183 220.416V229.314C583.183 240.21 591.349 249.362 602.139 250.557L663.015 257.302C665.463 257.573 667.848 257.413 670.108 256.894C668.68 255.204 667.823 253.06 667.823 250.724C667.823 245.274 672.475 240.856 678.212 240.856Z" fill="#F3705A"/>
<path fill-rule="evenodd" clip-rule="evenodd" d="M678.21 240.855C680.954 240.855 683.448 241.867 685.305 243.518C682.816 250.228 677.076 255.293 670.107 256.894C668.679 255.204 667.822 253.059 667.822 250.723C667.822 245.273 672.473 240.855 678.21 240.855ZM619.405 232.092C623.617 230.65 628.371 233.421 630.023 238.283C631.675 243.144 629.601 248.254 625.389 249.696C621.178 251.139 616.425 248.367 614.772 243.506C613.12 238.644 615.194 233.534 619.405 232.092ZM586.02 185.742C594.113 185.742 600.674 193.578 600.674 203.244C600.674 212.911 594.113 220.746 586.02 220.746C585.049 220.746 584.1 220.63 583.182 220.415V186.073C584.1 185.858 585.049 185.742 586.02 185.742ZM644.45 195.424C649.573 195.424 653.725 199.675 653.725 204.92C653.725 210.164 649.573 214.415 644.45 214.415C639.328 214.415 635.176 210.164 635.176 204.92C635.176 199.675 639.328 195.424 644.45 195.424ZM656.952 164.93L667.687 166.12C673.201 166.731 678.027 169.424 681.431 173.362C680.58 179.928 675.063 184.997 668.379 184.997C661.106 184.997 655.209 178.995 655.209 171.592C655.209 169.166 655.845 166.893 656.952 164.93ZM612.761 160.035L627.366 161.652C627.373 161.801 627.385 161.946 627.385 162.096C627.385 166.929 624.063 170.847 619.965 170.847C615.867 170.847 612.545 166.929 612.545 162.096C612.545 161.385 612.625 160.697 612.761 160.035Z" fill="#E74B33"/>
<path d="M91.3784 362.004H88.9863V376.888H91.3784V362.004Z" fill="#E3D4C5"/>
<path fill-rule="evenodd" clip-rule="evenodd" d="M747.762 137.59C747.937 137.643 765.488 143.138 783.227 162.848C793.623 174.401 802.069 188.515 808.332 204.8C816.148 225.123 820.564 248.904 821.458 275.482C821.473 275.936 821.118 276.317 820.666 276.333H820.637C820.197 276.333 819.833 275.982 819.818 275.538C818.931 249.145 814.551 225.544 806.802 205.393C800.612 189.297 792.27 175.354 782.008 163.952C764.573 144.577 747.458 139.217 747.287 139.165C746.853 139.034 746.609 138.575 746.74 138.14C746.871 137.704 747.332 137.456 747.762 137.59ZM867.509 145.253C867.952 145.35 868.232 145.788 868.136 146.232C861.107 178.684 825.667 274.477 825.31 275.441C825.188 275.772 824.875 275.978 824.542 275.978C824.447 275.978 824.35 275.961 824.256 275.925C823.831 275.767 823.615 275.293 823.773 274.867C824.13 273.905 859.529 178.22 866.534 145.883C866.629 145.438 867.064 145.153 867.509 145.253ZM752.907 206.768C753.007 206.826 762.978 212.739 774.235 223.992C784.628 234.381 798.297 251.593 804.394 274.586C804.511 275.026 804.25 275.476 803.812 275.593C803.742 275.612 803.671 275.621 803.601 275.621C803.238 275.621 802.907 275.378 802.809 275.009C791.316 231.67 752.47 208.418 752.079 208.188C751.688 207.958 751.557 207.454 751.786 207.062C752.014 206.669 752.517 206.538 752.907 206.768Z" fill="#5BA092"/>
<path fill-rule="evenodd" clip-rule="evenodd" d="M808.867 256.858C810.632 257.232 811.614 257.882 812.026 258.702C812.28 258.454 812.563 258.204 812.873 257.952C817.748 253.995 821.228 260.486 823.231 266.306C826.664 263.144 831.951 259.575 832.647 266.764C832.691 267.218 832.698 267.633 832.671 268.01C837.012 265.889 842.127 264.896 844.682 269.883C850.466 281.169 825.243 272.947 825.243 272.947C825.243 272.947 825.974 272.306 827.163 271.422C826.302 271.322 825.423 271.134 824.594 270.91C825.025 272.607 825.243 273.753 825.243 273.753C825.243 273.753 821.018 272.495 817.01 270.366C813.285 271.296 807.609 271.909 806.863 267.302C804.569 269.336 802.414 270.841 802.414 270.841L802.412 270.822C802.353 270.22 800.95 255.179 808.867 256.858ZM786.038 268.418C789.026 259.286 802.267 272.018 802.267 272.018C802.267 272.018 782.359 279.664 786.038 268.418ZM778.947 259.213C777.921 248.468 796.694 256.563 796.694 256.563C796.694 256.563 779.974 269.957 778.947 259.213ZM830.223 259.565C830.223 259.565 849.823 239.572 853.197 254.405C855.843 266.037 830.223 259.565 830.223 259.565ZM823.413 239.776C826.762 236.159 830.616 233.974 831.545 241.57C831.846 244.03 830.274 245.43 828.107 246.209C829.961 251.965 830.223 259.565 830.223 259.565C830.223 259.565 816.111 253.356 815.852 246.658C813.497 247.382 809.475 248.4 806.313 248.089C803.872 252.608 796.694 256.563 796.694 256.563C796.694 256.563 796.938 239.182 802.653 240.139C805.358 236.974 812.866 242.13 816.199 244.688C816.718 243.397 817.846 242.108 819.781 240.862C821.102 240.01 822.258 239.749 823.269 239.933L823.413 239.776ZM785.694 238.754C785.694 238.754 788.921 256.269 779.681 251.264C770.441 246.26 785.694 238.754 785.694 238.754ZM774.694 225.801C774.694 225.801 780.268 244.494 770.441 242.286C760.614 240.078 774.694 225.801 774.694 225.801ZM859.302 234.574C864.754 248.61 837.613 239.411 837.613 239.411C837.613 239.411 855.607 225.061 859.302 234.574ZM829.581 219.741C838.24 214.806 837.131 239.411 837.131 239.411C837.131 239.411 816.568 227.157 829.581 219.741ZM793.321 225.065C801.827 225.948 785.694 238.754 785.694 238.754C785.694 238.754 779.188 223.597 793.321 225.065ZM762.521 214.614C762.521 214.614 771.027 237.429 760.028 233.161C749.028 228.892 762.521 214.614 762.521 214.614ZM814.401 227.068C814.401 227.068 797.256 236.532 797.256 226.085C797.256 215.639 814.401 227.068 814.401 227.068ZM824.197 210.231C836.321 214.164 814.156 226.577 814.156 226.577C814.156 226.577 812.074 206.298 824.197 210.231ZM782.761 209.315C792.44 212.407 774.694 225.801 774.694 225.801C774.694 225.801 773.081 206.225 782.761 209.315ZM752.738 207.69C751.764 204.79 744.464 181.912 757.241 183.705C769.782 185.464 755.542 204.519 753.166 207.578C753.242 207.559 753.281 207.549 753.281 207.549C753.281 207.549 750.788 230.953 739.641 220.943C731.644 213.762 749.09 208.658 752.659 207.709L752.738 207.69ZM845.325 216.839C845.325 216.839 864.282 199.748 866.049 215.227C867.224 225.51 845.325 216.839 845.325 216.839ZM833.597 201.683C841.306 196.126 845.325 216.839 845.325 216.839C845.325 216.839 822.19 209.906 833.597 201.683ZM769.561 197.246C782.468 199.748 762.521 214.614 762.521 214.614C762.521 214.614 759.768 195.347 769.561 197.246ZM808.4 207.159C808.4 207.159 796.766 220.063 793.95 209.125C791.943 201.329 808.4 207.159 808.4 207.159ZM818.564 189.215C828.729 192.411 808.4 207.159 808.4 207.159C808.4 207.159 808.4 186.021 818.564 189.215ZM801.665 191.551L801.656 191.569C801.356 192.166 793.796 207.001 786.235 199.293C778.52 191.428 801.665 191.551 801.665 191.551ZM872.315 190.236C878.098 202.65 852.393 196.04 852.393 196.04C852.393 196.04 866.531 177.821 872.315 190.236ZM836.167 181.207C843.165 173.033 852.393 196.04 852.393 196.04C852.393 196.04 826.367 192.654 836.167 181.207ZM809.869 171.149C820.156 172.993 801.053 190.322 801.053 190.322C801.053 190.322 797.739 168.976 809.869 171.149ZM791.133 174.099C791.133 174.099 790.154 194.132 779.744 186.635C771.197 180.478 791.133 174.099 791.133 174.099ZM881.793 171.372C884.203 188.14 859.667 174.068 859.667 174.068C859.667 174.068 878.998 151.927 881.793 171.372ZM781.337 161.933C781.337 161.933 778.974 183.936 769.948 176.926C759.662 168.938 781.337 161.933 781.337 161.933ZM797.379 153.944C808.768 155.665 791.133 174.099 791.133 174.099C791.133 174.099 785.748 152.187 797.379 153.944ZM843.879 156.539C855 149.635 859.818 173.386 859.818 173.386C859.818 173.386 828.295 166.212 843.879 156.539ZM764.315 147.185C764.315 147.185 765.05 173.362 753.661 166.971C742.272 160.58 764.315 147.185 764.315 147.185ZM781.092 161.318C781.092 161.318 768.872 138.891 779.99 138.705C794.685 138.459 781.092 161.318 781.092 161.318ZM748.273 138.705C748.273 138.705 747.538 167.34 735.537 156.771C726.929 149.19 748.273 138.705 748.273 138.705ZM847.734 127.679C863.96 116.716 866.853 147.994 866.853 147.994C866.853 147.994 836.469 135.291 847.734 127.679ZM894.003 137.836C901.875 152.186 867.334 146.059 867.334 146.059C867.334 146.059 886.131 123.487 894.003 137.836ZM764.315 147.185C764.315 147.185 751.398 123.205 765.294 122.728C779.622 122.237 764.315 147.185 764.315 147.185ZM748.273 138.705L748.216 138.648C747.012 137.436 727.172 117.136 741.782 111.176C756.845 105.031 748.273 138.705 748.273 138.705Z" fill="#2F6858"/>
<mask id="mask0" mask-type="alpha" maskUnits="userSpaceOnUse" x="763" y="273" width="92" height="115">
<path fill-rule="evenodd" clip-rule="evenodd" d="M763.138 273.619L854.2 275.052L843.846 360.918C843.125 366.901 840.729 372.599 836.752 377.113C831.578 382.985 822.658 388.5 807.67 387.068C792.575 385.625 782.692 379.169 776.601 373.114C771.323 367.868 768.231 360.803 767.796 353.36L763.138 273.619Z" fill="white"/>
</mask>
<g mask="url(#mask0)">
<path fill-rule="evenodd" clip-rule="evenodd" d="M763.138 273.619L854.2 275.052L843.846 360.918C843.125 366.901 840.729 372.599 836.752 377.113C831.578 382.985 822.658 388.5 807.67 387.068C792.575 385.625 782.692 379.169 776.601 373.114C771.323 367.868 768.231 360.803 767.796 353.36L763.138 273.619Z" fill="#E58857"/>
<path fill-rule="evenodd" clip-rule="evenodd" d="M775.668 370.593C780.136 372.269 784.871 373.643 789.854 374.649C790.993 374.879 792.145 375.089 793.309 375.28C793.905 375.377 794.503 375.47 795.105 375.557C797.397 375.888 799.737 376.141 802.123 376.312C802.768 376.358 803.415 376.398 804.063 376.431C804.683 376.463 805.305 376.49 805.928 376.51C805.935 376.511 805.943 376.511 805.951 376.511L806.592 376.53C817.08 376.807 827.987 375.441 839.252 372.178C839.307 372.162 839.364 372.15 839.419 372.143L839.503 372.135C839.504 372.135 839.505 372.135 839.505 372.134C840.033 372.103 840.532 372.44 840.685 372.972C840.77 373.271 840.732 373.576 840.599 373.831C840.595 373.839 840.59 373.848 840.586 373.856L840.544 373.925C840.451 374.07 840.326 374.194 840.174 374.287C840.089 374.339 839.995 374.381 839.893 374.41L839.346 374.566L839.19 374.612L838.487 374.808C828.424 377.592 818.633 378.895 809.163 378.888C808.94 378.888 808.718 378.887 808.496 378.885C807.665 378.88 806.837 378.864 806.011 378.838C804.872 378.802 803.738 378.747 802.608 378.673L801.959 378.629L801.29 378.578L801.24 378.575C801.222 378.574 801.204 378.572 801.187 378.571C800.01 378.478 798.845 378.365 797.691 378.233L796.989 378.15C796.289 378.065 795.593 377.973 794.901 377.874L794.211 377.773C787.322 376.738 780.857 375.02 774.858 372.77C774.259 372.545 773.955 371.876 774.179 371.275L774.214 371.191L774.179 371.275C774.221 371.16 774.28 371.057 774.351 370.965L774.407 370.899C774.491 370.806 774.589 370.729 774.696 370.669C774.811 370.604 774.936 370.559 775.066 370.537L775.15 370.525C775.178 370.522 775.207 370.521 775.236 370.52C775.379 370.516 775.525 370.54 775.668 370.593ZM768.02 347.411L768.079 347.44L768.497 347.645C771.049 348.883 773.749 350.031 776.592 351.063L777.127 351.256C778.301 351.674 779.499 352.073 780.721 352.45C782.999 353.154 785.358 353.784 787.797 354.33C787.987 354.372 788.178 354.415 788.37 354.456C791.216 355.075 794.168 355.58 797.222 355.953C798.203 356.073 799.187 356.179 800.176 356.27L800.77 356.323C802.164 356.442 803.566 356.533 804.975 356.594C805.168 356.602 805.361 356.61 805.554 356.617L806.157 356.638C807.161 356.669 808.17 356.685 809.182 356.686L809.79 356.684C820.945 356.626 832.568 354.704 844.584 350.615C844.7 350.576 844.817 350.556 844.932 350.554L845.019 350.555C845.276 350.569 845.522 350.67 845.715 350.838L845.777 350.896C845.898 351.018 845.993 351.169 846.052 351.342L846.052 351.342C846.257 351.95 845.933 352.609 845.328 352.815C833.166 356.953 821.384 358.917 810.064 359.006L809.458 359.009C809.256 359.009 809.054 359.009 808.853 359.008L808.249 359.004C805.449 358.976 802.679 358.834 799.938 358.581C799.724 358.561 799.509 358.541 799.295 358.519L798.705 358.46C798.116 358.398 797.528 358.331 796.942 358.26C795.891 358.131 794.853 357.987 793.826 357.829C793.134 357.722 792.447 357.609 791.766 357.49C789.493 357.091 787.281 356.621 785.131 356.087C784.561 355.945 783.994 355.799 783.432 355.648L782.854 355.491C780.596 354.871 778.41 354.179 776.299 353.426C775.533 353.153 774.776 352.871 774.03 352.582L773.506 352.377C771.243 351.484 769.073 350.519 766.999 349.496C766.425 349.213 766.189 348.517 766.471 347.941L766.506 347.876L766.514 347.861C766.727 347.499 767.112 347.291 767.511 347.292C767.682 347.292 767.856 347.33 768.02 347.411ZM766.753 325.404C775.04 329.69 785.128 333.049 796.762 334.53C812.609 336.546 829.516 334.79 847.251 328.307C847.852 328.088 848.516 328.398 848.735 329.001C848.953 329.604 848.644 330.27 848.043 330.49C829.956 337.102 812.677 338.896 796.471 336.834C784.552 335.317 774.208 331.873 765.693 327.469C765.125 327.175 764.901 326.474 765.194 325.904C765.487 325.334 766.185 325.11 766.753 325.404ZM764.581 297.708L764.666 297.709C764.837 297.716 765.009 297.763 765.169 297.851C765.357 297.954 765.546 298.057 765.736 298.16C766.913 298.794 768.133 299.412 769.394 300.008C772.454 301.455 775.761 302.78 779.301 303.935C782.569 305.001 786.036 305.922 789.691 306.661C791.722 307.072 793.811 307.426 795.957 307.718C797.607 307.942 799.27 308.125 800.943 308.267C801.113 308.281 801.282 308.295 801.451 308.308L802.005 308.351C803.483 308.459 804.97 308.535 806.466 308.578L807.026 308.592C807.401 308.601 807.776 308.607 808.151 308.611L808.715 308.616C808.903 308.617 809.091 308.618 809.279 308.618L809.844 308.616C822.849 308.545 836.472 305.939 850.596 300.327C850.738 300.271 850.884 300.245 851.027 300.245L851.113 300.249C851.353 300.268 851.583 300.362 851.767 300.517C851.794 300.54 851.82 300.565 851.846 300.59C851.883 300.628 851.918 300.669 851.951 300.713C852.007 300.789 852.055 300.873 852.092 300.964C852.094 300.969 852.097 300.974 852.099 300.979C852.334 301.576 852.043 302.251 851.449 302.487C836.088 308.59 821.284 311.209 807.195 310.919C805.941 310.893 804.693 310.845 803.451 310.773L802.888 310.739C802.713 310.728 802.538 310.717 802.363 310.705C801.21 310.626 800.062 310.528 798.919 310.41C798.584 310.376 798.249 310.34 797.915 310.302C797.712 310.279 797.508 310.255 797.305 310.231L796.751 310.164C796.382 310.118 796.014 310.07 795.646 310.02C793.091 309.673 790.613 309.238 788.217 308.728C786.613 308.386 785.046 308.01 783.515 307.602C782.56 307.348 781.62 307.082 780.694 306.804C780.498 306.745 780.302 306.686 780.107 306.626C779.828 306.541 779.551 306.454 779.275 306.366C778.653 306.169 778.038 305.966 777.43 305.759C776.729 305.52 776.037 305.274 775.354 305.022C771.569 303.625 768.067 302.04 764.866 300.327C764.597 300.183 764.33 300.038 764.065 299.893C764.062 299.891 764.059 299.889 764.056 299.887C763.495 299.579 763.29 298.873 763.598 298.31C763.803 297.936 764.184 297.719 764.581 297.708ZM761.389 276.681C770.292 281.647 781.516 285.689 794.722 287.507C813.223 290.054 833.047 287.786 853.881 279.398C854.525 279.139 855.253 279.46 855.508 280.114C855.762 280.768 855.447 281.509 854.804 281.768C833.563 290.32 813.305 292.637 794.386 290.032C780.855 288.169 769.342 284.024 760.184 278.916C759.577 278.578 759.355 277.803 759.687 277.186C760.02 276.569 760.782 276.343 761.389 276.681Z" fill="#F4F0F0"/>
</g>
<path fill-rule="evenodd" clip-rule="evenodd" d="M378.278 359.225C378.278 359.225 367.659 393.43 353.266 401.397C353.266 401.397 344.788 405.454 343.927 393.707L346.635 354.948L354.291 347.007L378.278 359.225Z" fill="#F3705A"/>
<path fill-rule="evenodd" clip-rule="evenodd" d="M421.941 141.555C422.847 156.327 417.55 188.486 416.404 195.205C433.87 205.978 423.8 237.561 423.8 237.561L383.173 360.8C355.534 364.131 342.547 330.823 342.547 330.823L385.838 244.223C362.68 251.666 350.683 255.453 349.846 255.585C348.747 255.758 287.796 255.837 279.094 255.419C239.405 255.419 270.051 178.489 270.051 178.489C270.051 178.489 285.032 178.564 314.994 178.713L315.906 178.717C315.906 178.717 377.994 136.249 389.462 129.523C401.641 122.379 420.926 125.011 421.941 141.555Z" fill="#3973B0"/>
<path fill-rule="evenodd" clip-rule="evenodd" d="M394.193 239.312C394.305 239.546 394.224 239.837 394.013 239.961L386.039 244.647C385.829 244.771 385.567 244.681 385.456 244.447C385.344 244.213 385.425 243.922 385.636 243.798L393.609 239.112C393.82 238.988 394.081 239.077 394.193 239.312ZM391.833 180.864C392.024 181.023 392.063 181.324 391.92 181.536L384.923 191.903L400.479 191.19C406.647 191.011 411.688 192.062 415.677 194.239C415.892 194.356 415.98 194.643 415.875 194.881C415.77 195.119 415.511 195.217 415.297 195.101C411.442 192.997 406.537 191.975 400.508 192.15L335.904 195.111C335.812 195.115 335.72 195.086 335.644 195.028L326.704 188.275C326.507 188.126 326.455 187.827 326.59 187.608C326.724 187.389 326.992 187.332 327.19 187.481L336.011 194.145L383.809 191.954L391.228 180.96C391.372 180.748 391.642 180.705 391.833 180.864Z" fill="#94C0E9"/>
<path fill-rule="evenodd" clip-rule="evenodd" d="M289.894 71.0562C308.504 71.0562 323.591 65.8125 323.591 41.2892C323.591 16.7659 311.96 3.84045 289.894 3.84045C267.828 3.84045 256.198 16.7659 256.198 41.2892C256.198 65.8125 271.284 71.0562 289.894 71.0562Z" fill="#010101"/>
<path fill-rule="evenodd" clip-rule="evenodd" d="M292.359 22.0849C278.728 22.0849 267.677 33.0117 267.677 46.4909C267.677 49.2506 268.147 51.8998 269.001 54.3734C268.917 54.371 268.835 54.3619 268.75 54.3619C265.158 54.3619 262.246 57.0241 262.246 60.3085C262.246 63.593 265.158 66.2552 268.75 66.2552C270.736 66.2552 272.511 65.4395 273.703 64.1566C274.134 63.6938 274.799 63.6439 275.255 64.0769C278.59 67.251 282.822 69.5085 287.542 70.4322C288.148 70.5508 288.577 71.1576 288.541 71.8408L287.867 84.9793H299.289L298.76 74.6567C298.632 72.1654 299.944 69.833 302.043 68.9472C310.861 65.2244 317.041 56.5713 317.041 46.4909C317.041 33.0117 305.991 22.0849 292.359 22.0849Z" fill="#8D574D"/>
<path fill-rule="evenodd" clip-rule="evenodd" d="M292.359 22.0849C278.728 22.0849 267.677 33.0118 267.677 46.491C267.677 49.2507 268.148 51.9004 269.001 54.3739L271.249 58.091C271.763 58.9398 272.634 59.4319 273.554 59.393L275.065 59.3282C276.018 59.2322 276.66 58.1999 276.405 57.1749L274.653 50.1552C278.151 45.8582 278.36 34.8458 278.36 34.8458C288.398 40.4238 317.508 35.5891 309.769 29.192C305.305 24.8004 299.154 22.0849 292.359 22.0849Z" fill="#010101"/>
<path fill-rule="evenodd" clip-rule="evenodd" d="M287.395 45.1301C292.453 45.1301 296.56 49.5722 296.56 55.0617C296.56 55.4214 296.542 55.7766 296.508 56.1263L299.544 56.1184C299.529 55.881 299.522 55.6414 299.522 55.3998C299.522 49.9251 303.275 45.4681 307.925 45.4681C312.577 45.4681 316.329 49.925 316.329 55.3998C316.329 60.8745 312.577 65.3314 307.925 65.3314C303.904 65.3314 300.554 61.999 299.721 57.5579L296.266 57.5678C295.24 61.842 291.655 64.9933 287.395 64.9933C282.337 64.9933 278.23 60.5512 278.23 55.0617C278.23 49.5722 282.337 45.1301 287.395 45.1301ZM307.925 46.9085C304.01 46.9085 300.818 50.7 300.818 55.3998C300.818 60.0995 304.01 63.891 307.925 63.891C311.841 63.891 315.033 60.0997 315.033 55.3998C315.033 50.6998 311.841 46.9085 307.925 46.9085ZM287.395 46.5704C283.045 46.5704 279.526 50.3765 279.526 55.0617C279.526 59.7469 283.045 63.553 287.395 63.553C291.745 63.553 295.264 59.7469 295.264 55.0617C295.264 50.3765 291.745 46.5704 287.395 46.5704Z" fill="#F3705A"/>
<path fill-rule="evenodd" clip-rule="evenodd" d="M291.878 65.0625C291.755 64.6891 291.927 64.2754 292.263 64.1385C292.599 64.0016 292.972 64.1933 293.095 64.5667C293.118 64.6362 293.171 64.7755 293.254 64.9605C293.396 65.2733 293.567 65.5862 293.768 65.8748C294.736 67.2695 295.912 67.5952 297.583 66.2586C297.873 66.0263 298.278 66.0996 298.487 66.4223C298.696 66.7451 298.63 67.1952 298.34 67.4276C296.051 69.259 294.107 68.7205 292.742 66.7548C292.304 66.1249 292.022 65.5008 291.878 65.0625Z" fill="#010101"/>
<path fill-rule="evenodd" clip-rule="evenodd" d="M286.166 58.0838C286.166 56.9611 286.746 56.0509 287.462 56.0509C288.178 56.0509 288.758 56.9611 288.758 58.0838C288.758 59.2065 288.178 60.1167 287.462 60.1167C286.746 60.1167 286.166 59.2065 286.166 58.0838Z" fill="#010101"/>
<path fill-rule="evenodd" clip-rule="evenodd" d="M305.946 58.0838C305.946 56.9611 306.526 56.0509 307.242 56.0509C307.957 56.0509 308.538 56.9611 308.538 58.0838C308.538 59.2065 307.957 60.1167 307.242 60.1167C306.526 60.1167 305.946 59.2065 305.946 58.0838Z" fill="#010101"/>
<path fill-rule="evenodd" clip-rule="evenodd" d="M250.495 129.639L261.027 141.868C261.027 141.868 255.606 168.377 253.979 178.92C252.353 189.463 220.013 255.69 220.013 255.69L216.754 276.056C216.566 277.233 216.121 278.356 215.395 279.238C214.667 280.123 213.653 280.779 212.507 279.862C210.216 278.028 210.703 265.574 210.703 265.574C210.703 265.574 201.048 276.704 195.274 282.714C189.499 288.725 185.741 288.233 184.09 286.484C182.405 284.698 185.904 280.697 186.087 280.49L186.095 280.482C181.236 284.251 177.796 282.15 177.796 282.15C176.421 281.414 178.237 277.146 178.237 277.146C176.797 278.613 173.64 278.639 172.449 277.111C171.505 275.902 174.313 271.192 174.313 271.192C171.899 273.342 165.848 272.832 167.479 269.725C168.466 267.843 193.884 225.747 194.901 224.064L194.932 224.012C206.645 198.832 236.814 130.082 236.814 130.082L250.495 129.639ZM421.749 7.7608C421.75 7.76434 424.004 28.8927 423.911 31.793C423.911 31.793 426.148 27.9603 429.411 28.1672C432.673 28.3746 433.792 35.8336 433.792 35.8336C433.792 35.8336 438.732 36.248 440.037 44.8463C440.037 44.8463 443.666 48.2455 438.976 60.0904C435.9 67.8605 432.767 70.9529 432.767 70.9529C432.767 70.9529 425.81 156.931 415.422 169.212C408.379 177.539 386.84 180.581 347.942 143.492L358.28 110.579L363.103 102.65L363.123 102.661C363.803 103.027 380.918 112.294 392.261 124.319L403.987 66.4163C403.987 66.4163 393.095 49.8726 397.344 43.0857C400.327 38.3201 403.8 38.6759 403.8 38.6759C403.8 38.6759 399.488 7.13732 402.005 4.13277C404.521 1.12823 408.559 8.89213 408.559 8.89213C408.559 8.89213 412.899 19.1495 414.349 31.3949L414.37 31.5808L414.359 31.4602C413.751 24.8889 412.378 6.2149 415.894 1.54257C420.139 -4.09795 421.718 7.52772 421.749 7.7608ZM314.006 84.0404C314.006 84.0404 307.684 88.5247 299.024 88.9294C289.646 89.3673 282.18 84.859 282.18 84.859C282.18 84.859 293.891 80.9869 314.006 84.0404Z" fill="#8D574D"/>
<path fill-rule="evenodd" clip-rule="evenodd" d="M198.163 264.969C198.388 265.057 198.507 265.33 198.428 265.581C198.044 266.802 196.368 269.138 193.703 272.357C193.42 272.699 193.128 273.048 192.828 273.404C191.604 274.853 190.294 276.351 188.984 277.813C188.525 278.324 188.1 278.795 187.717 279.214C187.584 279.361 187.465 279.491 187.362 279.602C187.301 279.669 187.258 279.715 187.236 279.739C187.065 279.924 186.792 279.92 186.625 279.73C186.459 279.54 186.462 279.236 186.633 279.051C186.655 279.028 186.697 278.983 186.758 278.916C186.859 278.805 186.978 278.676 187.111 278.53C187.491 278.113 187.915 277.645 188.372 277.135C189.676 275.679 190.981 274.188 192.198 272.747C192.496 272.393 192.787 272.046 193.067 271.707C195.631 268.61 197.285 266.304 197.613 265.263C197.692 265.013 197.938 264.881 198.163 264.969ZM190.89 260.473C191.11 260.578 191.211 260.86 191.117 261.104C190.516 262.663 188.735 265.253 186.054 268.631C185.683 269.098 185.298 269.577 184.9 270.066C183.509 271.773 182.019 273.529 180.529 275.238C180.008 275.836 179.524 276.385 179.089 276.874C178.937 277.045 178.802 277.196 178.685 277.326C178.615 277.404 178.567 277.458 178.542 277.486C178.373 277.673 178.099 277.672 177.931 277.484C177.763 277.297 177.763 276.993 177.932 276.806L178.073 276.648C178.189 276.519 178.323 276.369 178.475 276.199C178.907 275.712 179.389 275.165 179.909 274.57C181.392 272.868 182.875 271.119 184.259 269.421C184.655 268.935 185.038 268.46 185.406 267.996C188.022 264.7 189.772 262.155 190.323 260.725C190.417 260.482 190.671 260.369 190.89 260.473ZM182.94 258.533C183.152 258.654 183.237 258.943 183.129 259.179C182.456 260.645 181.719 262.047 180.927 263.384C179.544 265.72 178.062 267.751 176.578 269.468C176.058 270.071 175.574 270.591 175.14 271.029C174.987 271.183 174.85 271.316 174.733 271.427C174.661 271.495 174.61 271.541 174.583 271.566C174.397 271.732 174.125 271.699 173.975 271.492C173.826 271.285 173.856 270.983 174.042 270.817C174.063 270.798 174.107 270.758 174.173 270.696C174.284 270.591 174.413 270.464 174.56 270.317C174.98 269.894 175.449 269.389 175.955 268.804C177.403 267.127 178.853 265.141 180.206 262.856C180.98 261.549 181.701 260.177 182.359 258.743C182.467 258.507 182.727 258.413 182.94 258.533ZM392.824 123.85L394.558 132.321C394.611 132.579 394.465 132.836 394.232 132.895C394 132.954 393.768 132.792 393.715 132.534L391.982 124.063C391.929 123.804 392.074 123.547 392.307 123.488C392.54 123.43 392.771 123.591 392.824 123.85ZM424.187 31.4239C424.37 31.5937 424.395 31.8965 424.242 32.1001C424.227 32.1208 424.196 32.162 424.151 32.2228C424.076 32.3246 423.989 32.4438 423.89 32.5795C423.609 32.9679 423.294 33.4096 422.956 33.8964C421.989 35.2875 421.022 36.7604 420.121 38.2485C419.428 39.3922 418.801 40.5001 418.257 41.5554C416.956 44.078 416.182 46.1897 416.062 47.7228C416.053 47.8474 416.047 47.9674 416.046 48.0829C416.06 48.0999 416.072 48.119 416.083 48.1393C416.171 48.2996 416.164 48.4941 416.081 48.643C416.23 49.6909 416.877 50.247 418.147 50.3454C420.173 50.5021 421.586 49.6345 424.485 45.9403C424.496 45.9178 424.511 45.8894 424.528 45.8554C424.581 45.7514 424.644 45.6312 424.716 45.496C424.92 45.1112 425.159 44.683 425.429 44.2221C426.201 42.9058 427.074 41.5895 428.03 40.359C429.821 38.0562 431.695 36.3229 433.619 35.393C433.838 35.2873 434.093 35.3988 434.188 35.6419C434.283 35.8851 434.183 36.1679 433.964 36.2736C432.178 37.1366 430.397 38.7834 428.684 40.9868C427.755 42.1818 426.905 43.4641 426.153 44.7465C425.89 45.1952 425.658 45.6115 425.459 45.9846C425.341 46.2071 425.261 46.3648 425.22 46.4467L425.225 46.4373C425.207 46.4756 425.172 46.552 425.123 46.6633C425.041 46.8504 424.949 47.066 424.849 47.3071C424.565 47.9969 424.281 48.7502 424.015 49.5413C423.572 50.8632 423.228 52.1537 423.022 53.3588C422.554 56.1043 422.848 58.0999 424.047 59.0875C425.06 59.9222 426.928 58.2951 429.549 54.2952C431.99 50.5724 435.883 46.694 437.804 45.8634C438.026 45.7672 438.277 45.8896 438.363 46.1367C438.45 46.3839 438.34 46.6621 438.117 46.7583C436.376 47.5114 432.599 51.2731 430.248 54.8605C427.316 59.3348 425.167 61.2061 423.533 59.8588C421.995 58.5926 421.649 56.2494 422.174 53.1798C422.389 51.9158 422.747 50.575 423.206 49.206C423.271 49.0119 423.337 48.8202 423.404 48.631C421.366 50.8383 419.944 51.4469 418.087 51.3033C416.555 51.1846 415.631 50.4408 415.311 49.2031C414.867 49.4774 414.352 49.7772 413.773 50.0987C413.478 50.2626 413.168 50.4311 412.845 50.6036C411.921 51.0975 410.932 51.6022 409.942 52.0907C409.851 52.136 409.761 52.1802 409.673 52.2234C410.165 52.4199 410.707 52.6588 411.292 52.9435C413.39 53.9635 415.63 55.361 417.921 57.194C418.115 57.3489 418.158 57.6489 418.019 57.8641C417.88 58.0793 417.61 58.1281 417.416 57.9732C415.177 56.1812 412.99 54.8169 410.946 53.8233C410.233 53.4765 409.589 53.201 409.026 52.9897C408.831 52.9162 408.66 52.856 408.514 52.8083C408.429 52.7803 408.372 52.763 408.346 52.7554C407.946 52.6415 407.904 52.0286 408.284 51.8487C408.348 51.818 408.471 51.7595 408.642 51.6768C408.929 51.5387 409.248 51.383 409.592 51.2132C410.573 50.7283 411.555 50.2275 412.471 49.7382C412.79 49.5678 413.096 49.4014 413.387 49.2398C414.089 48.8495 414.695 48.4932 415.184 48.179C415.181 48.0059 415.187 47.8261 415.202 47.6401C415.334 45.9332 416.148 43.7122 417.507 41.0778C417.751 40.6048 418.011 40.1221 418.285 39.631C417.07 39.6518 414.661 39.6092 411.317 39.5183C410.603 39.4989 409.86 39.4776 409.095 39.4547C407.771 39.4151 406.444 39.3726 405.178 39.3302C404.735 39.3153 404.332 39.3015 403.975 39.2891C403.761 39.2817 403.611 39.2764 403.531 39.2736C403.293 39.2651 403.106 39.0433 403.113 38.7783C403.121 38.5133 403.32 38.3053 403.559 38.3138C403.638 38.3167 403.788 38.322 404.002 38.3294C404.358 38.3418 404.762 38.3555 405.204 38.3704C406.469 38.4128 407.795 38.4552 409.118 38.4948C409.882 38.5177 410.625 38.539 411.338 38.5584C415.366 38.6678 418.111 38.7069 418.846 38.6508C419.026 38.3411 419.213 38.0279 419.404 37.7122C420.317 36.2053 421.295 34.716 422.272 33.3095C422.614 32.8172 422.932 32.3702 423.218 31.9768C423.318 31.839 423.407 31.7175 423.483 31.6136C423.53 31.5509 423.562 31.5078 423.579 31.4853C423.731 31.2816 424.004 31.2542 424.187 31.4239Z" fill="#6D4038"/>
<mask id="mask1" mask-type="alpha" maskUnits="userSpaceOnUse" x="236" y="83" width="132" height="103">
<path fill-rule="evenodd" clip-rule="evenodd" d="M313.682 83.9916C315.921 84.2564 318.264 84.5668 320.734 84.9164C349.53 88.9926 367.829 105.468 367.829 105.468C361.968 129.022 347.942 143.492 347.942 143.492L350.553 178.321C289.119 196.703 248.328 174.865 248.328 174.865L259.645 148.053C246.587 145.013 236.813 130.082 236.813 130.082C236.813 130.082 243.175 102.413 261.822 92.9516C269.513 89.0491 275.992 86.4603 282.247 84.8977C283.004 85.338 290.16 89.3428 299.023 88.929C307.684 88.5243 314.005 84.04 314.005 84.04L313.682 83.9916Z" fill="white"/>
</mask>
<g mask="url(#mask1)">
<path fill-rule="evenodd" clip-rule="evenodd" d="M313.682 83.9916C315.921 84.2564 318.264 84.5668 320.734 84.9164C349.53 88.9926 367.829 105.468 367.829 105.468C361.968 129.022 347.942 143.492 347.942 143.492L350.553 178.321C289.119 196.703 248.328 174.865 248.328 174.865L259.645 148.053C246.587 145.013 236.813 130.082 236.813 130.082C236.813 130.082 243.175 102.413 261.822 92.9516C269.513 89.0491 275.992 86.4603 282.247 84.8977C283.004 85.338 290.16 89.3428 299.023 88.929C307.684 88.5243 314.005 84.04 314.005 84.04L313.682 83.9916Z" fill="#F2B08F"/>
<path fill-rule="evenodd" clip-rule="evenodd" d="M314.087 84.4993V84.9794H314.519V189.644H313.223V169.479H294.214V189.644H292.918V169.479H273.91V189.644H272.614V169.479H253.605V189.644H252.309V169.479H233.301V189.644H232.005V169.479H212.997V189.644H211.701V169.479L193.124 169.479V168.039L211.701 168.038V148.714H193.124V147.274H211.701V127.709H193.124V126.269H211.701V107.064L193.124 107.065V105.624L211.701 105.624V85.9396H193.124V84.4993H314.087ZM232.005 148.714H212.997V168.038H232.005V148.714ZM252.309 148.714H233.301V168.038H252.309V148.714ZM272.614 148.714H253.605V168.038H272.614V148.714ZM292.918 148.714H273.91V168.038H292.918V148.714ZM313.223 148.714H294.214V168.038H313.223V148.714ZM232.005 127.709H212.997V147.274H232.005V127.709ZM252.309 127.709H233.301V147.274H252.309V127.709ZM272.614 127.709H253.605V147.274H272.614V127.709ZM292.918 127.709H273.91V147.274H292.918V127.709ZM313.223 127.709H294.214V147.274H313.223V127.709ZM232.005 107.064H212.997V126.269H232.005V107.064ZM252.309 107.064H233.301V126.269H252.309V107.064ZM272.614 107.064H253.605V126.269H272.614V107.064ZM292.918 107.064H273.91V126.269H292.918V107.064ZM313.223 107.064H294.214V126.269H313.223V107.064ZM232.005 85.9396H212.997V105.624H232.005V85.9396ZM252.309 85.9396H233.301V105.624H252.309V85.9396ZM272.614 85.9396H253.605V105.624H272.614V85.9396ZM292.918 85.9396H273.91V105.624H292.918V85.9396ZM313.223 85.9396H294.214V105.624H313.223V85.9396Z" fill="#010101"/>
<path fill-rule="evenodd" clip-rule="evenodd" d="M398.525 184.187L399.579 188.843C399.667 189.229 399.456 189.62 399.109 189.717C398.762 189.814 398.41 189.58 398.322 189.194L397.268 184.538C397.181 184.153 397.391 183.761 397.739 183.664C398.086 183.567 398.438 183.801 398.525 184.187ZM334.723 183.808L335.167 188.584C335.204 188.98 334.945 189.334 334.589 189.375C334.233 189.415 333.915 189.128 333.878 188.732L333.434 183.956C333.397 183.561 333.656 183.207 334.012 183.166C334.368 183.125 334.686 183.413 334.723 183.808ZM368.691 186.773C368.805 187.15 368.623 187.558 368.284 187.686L364.192 189.223C363.853 189.35 363.485 189.148 363.37 188.771C363.256 188.395 363.438 187.986 363.777 187.858L367.869 186.321C368.208 186.194 368.576 186.396 368.691 186.773ZM319.465 181.982C319.575 182.361 319.387 182.766 319.047 182.888L314.933 184.356C314.592 184.477 314.227 184.269 314.118 183.89C314.009 183.511 314.196 183.106 314.537 182.984L318.65 181.517C318.991 181.395 319.356 181.603 319.465 181.982ZM418.61 171.759L419.409 176.477C419.475 176.868 419.244 177.245 418.892 177.318C418.54 177.392 418.202 177.135 418.135 176.744L417.336 172.026C417.27 171.635 417.501 171.258 417.853 171.185C418.205 171.111 418.544 171.368 418.61 171.759ZM345.974 170.16C346.113 170.526 345.959 170.948 345.629 171.103L341.648 172.968C341.318 173.123 340.938 172.951 340.799 172.584C340.66 172.218 340.815 171.795 341.144 171.641L345.125 169.776C345.455 169.621 345.835 169.793 345.974 170.16ZM393.088 171.172C393.446 171.172 393.736 171.495 393.736 171.892C393.736 172.29 393.446 172.613 393.088 172.613H388.768C388.41 172.613 388.12 172.29 388.12 171.892C388.12 171.495 388.41 171.172 388.768 171.172H393.088ZM410.216 165.33C410.445 165.635 410.409 166.089 410.134 166.344L406.818 169.421C406.543 169.676 406.134 169.635 405.905 169.33C405.675 169.024 405.712 168.57 405.987 168.315L409.303 165.238C409.578 164.984 409.987 165.024 410.216 165.33ZM374.333 162.582L375.387 167.238C375.474 167.624 375.263 168.015 374.916 168.112C374.569 168.209 374.217 167.975 374.13 167.589L373.076 162.933C372.988 162.548 373.199 162.156 373.546 162.059C373.893 161.962 374.245 162.196 374.333 162.582ZM433.514 165.103C433.546 165.499 433.282 165.849 432.926 165.884L428.623 166.307C428.266 166.342 427.952 166.05 427.92 165.653C427.888 165.257 428.152 164.908 428.508 164.873L432.812 164.449C433.168 164.414 433.483 164.707 433.514 165.103ZM358.993 157.836L359.792 162.554C359.858 162.945 359.627 163.322 359.275 163.395C358.923 163.469 358.584 163.211 358.518 162.821L357.719 158.102C357.653 157.711 357.884 157.335 358.236 157.261C358.588 157.188 358.926 157.445 358.993 157.836ZM333.471 157.249C333.829 157.249 334.119 157.571 334.119 157.969C334.119 158.367 333.829 158.689 333.471 158.689H329.151C328.793 158.689 328.503 158.367 328.503 157.969C328.503 157.571 328.793 157.249 329.151 157.249H333.471ZM350.599 151.407C350.828 151.712 350.791 152.166 350.517 152.421L347.2 155.498C346.926 155.753 346.517 155.712 346.288 155.407C346.058 155.101 346.095 154.647 346.37 154.392L349.686 151.315C349.961 151.06 350.369 151.101 350.599 151.407ZM316.875 147.698L317.93 152.354C318.017 152.74 317.806 153.131 317.459 153.228C317.112 153.325 316.76 153.091 316.673 152.706L315.619 148.05C315.531 147.664 315.742 147.273 316.089 147.176C316.436 147.079 316.788 147.313 316.875 147.698ZM387.814 147.634L388.962 152.263C389.058 152.646 388.855 153.042 388.51 153.148C388.165 153.254 387.808 153.029 387.713 152.646L386.564 148.017C386.469 147.634 386.672 147.237 387.017 147.132C387.362 147.026 387.718 147.251 387.814 147.634ZM373.897 151.18C373.929 151.576 373.665 151.925 373.309 151.96L369.005 152.384C368.649 152.419 368.334 152.126 368.303 151.73C368.271 151.334 368.535 150.984 368.891 150.949L373.194 150.526C373.551 150.491 373.865 150.783 373.897 151.18ZM418.355 140.57L422.029 143.096C422.333 143.306 422.427 143.749 422.239 144.088C422.051 144.426 421.651 144.53 421.347 144.321L417.673 141.795C417.369 141.586 417.275 141.142 417.463 140.804C417.651 140.466 418.051 140.361 418.355 140.57ZM402.549 137.734L402.993 142.509C403.029 142.905 402.771 143.259 402.415 143.3C402.059 143.341 401.74 143.053 401.703 142.657L401.259 137.882C401.223 137.486 401.481 137.132 401.837 137.091C402.193 137.05 402.512 137.338 402.549 137.734ZM328.196 133.711L329.345 138.339C329.44 138.723 329.238 139.119 328.893 139.225C328.548 139.331 328.191 139.106 328.096 138.722L326.947 134.094C326.852 133.711 327.054 133.314 327.399 133.208C327.744 133.102 328.101 133.328 328.196 133.711ZM386.643 133.268C386.752 133.647 386.564 134.053 386.224 134.174L382.11 135.642C381.77 135.763 381.405 135.555 381.295 135.176C381.186 134.797 381.373 134.392 381.714 134.27L385.828 132.803C386.168 132.681 386.533 132.89 386.643 133.268ZM435.22 133C435.335 133.377 435.153 133.786 434.814 133.913L430.721 135.45C430.382 135.578 430.014 135.376 429.9 134.999C429.785 134.622 429.967 134.213 430.306 134.086L434.399 132.549C434.738 132.421 435.105 132.623 435.22 133ZM358.738 126.647L362.412 129.173C362.716 129.382 362.81 129.826 362.622 130.164C362.434 130.503 362.034 130.607 361.73 130.398L358.056 127.872C357.752 127.663 357.657 127.219 357.846 126.881C358.034 126.543 358.433 126.438 358.738 126.647ZM342.931 123.81L343.375 128.586C343.412 128.982 343.153 129.336 342.797 129.376C342.441 129.417 342.123 129.13 342.086 128.734L341.642 123.958C341.605 123.563 341.864 123.209 342.22 123.168C342.576 123.127 342.895 123.415 342.931 123.81ZM377.114 123.654C377.229 124.031 377.047 124.439 376.708 124.567L372.615 126.104C372.276 126.231 371.909 126.029 371.794 125.652C371.679 125.275 371.861 124.867 372.2 124.739L376.293 123.202C376.632 123.075 377 123.277 377.114 123.654ZM413.8 120.228C413.939 120.594 413.784 121.017 413.454 121.171L409.473 123.036C409.144 123.191 408.764 123.019 408.624 122.652C408.485 122.286 408.64 121.864 408.97 121.709L412.951 119.844C413.28 119.69 413.66 119.861 413.8 120.228ZM327.025 119.345C327.135 119.724 326.947 120.129 326.606 120.251L322.493 121.718C322.152 121.84 321.787 121.631 321.678 121.253C321.569 120.874 321.756 120.469 322.097 120.347L326.21 118.879C326.551 118.758 326.916 118.966 327.025 119.345ZM391.629 111.311L392.073 116.087C392.11 116.483 391.851 116.837 391.495 116.878C391.139 116.918 390.821 116.631 390.784 116.235L390.34 111.46C390.303 111.064 390.562 110.71 390.918 110.669C391.274 110.628 391.592 110.916 391.629 111.311ZM426.818 107.904L427.617 112.622C427.683 113.013 427.452 113.39 427.1 113.463C426.749 113.537 426.41 113.28 426.344 112.889L425.544 108.171C425.478 107.78 425.71 107.403 426.061 107.33C426.413 107.256 426.752 107.513 426.818 107.904ZM354.182 106.305C354.321 106.671 354.167 107.093 353.837 107.248L349.856 109.113C349.526 109.268 349.146 109.096 349.007 108.729C348.868 108.363 349.023 107.94 349.353 107.786L353.333 105.921C353.663 105.766 354.043 105.938 354.182 106.305ZM385.377 95.7342L388.543 99.0011C388.805 99.2718 388.821 99.7275 388.577 100.019C388.333 100.31 387.923 100.327 387.661 100.057L384.495 96.7897C384.233 96.519 384.218 96.0634 384.462 95.7719C384.705 95.4805 385.115 95.4636 385.377 95.7342ZM366.133 91.5677L366.932 96.2859C366.998 96.6768 366.767 97.0533 366.415 97.1269C366.063 97.2005 365.725 96.9432 365.658 96.5524L364.859 91.8341C364.793 91.4432 365.024 91.0667 365.376 90.9931C365.728 90.9196 366.067 91.1768 366.133 91.5677ZM341.679 93.394C342.037 93.394 342.327 93.7164 342.327 94.1142C342.327 94.5119 342.037 94.8343 341.679 94.8343H337.359C337.001 94.8343 336.711 94.5119 336.711 94.1142C336.711 93.7164 337.001 93.394 337.359 93.394H341.679ZM322.708 85.5239L323.762 90.1799C323.849 90.5656 323.639 90.957 323.291 91.0541C322.944 91.1511 322.592 90.9171 322.505 90.5314L321.451 85.8754C321.363 85.4897 321.574 85.0983 321.921 85.0012C322.268 84.9042 322.62 85.1382 322.708 85.5239ZM415.867 87.5802C416.006 87.9467 415.851 88.3691 415.521 88.5236L411.541 90.3887C411.211 90.5432 410.831 90.3713 410.692 90.0048C410.553 89.6383 410.707 89.216 411.037 89.0615L415.018 87.1964C415.348 87.0419 415.728 87.2137 415.867 87.5802Z" fill="#010101"/>
<path fill-rule="evenodd" clip-rule="evenodd" d="M260.029 148.273C259.919 148.509 259.658 148.601 259.446 148.48C259.234 148.358 259.151 148.068 259.261 147.833L265.896 133.557C266.006 133.321 266.266 133.229 266.478 133.351C266.69 133.473 266.773 133.762 266.664 133.998L260.029 148.273Z" fill="#E58857"/>
</g>
<path fill-rule="evenodd" clip-rule="evenodd" d="M623.135 178.601L623.137 183.661C577.868 188.125 507.386 243.809 550.549 275.584C577.889 295.71 590.287 301.615 607.128 305.515L604.683 326.187C611.164 329.633 616.14 324.882 619.385 319.656C622.879 314.029 628.611 310.671 634.73 310.75C638.953 311.532 643.56 312.416 648.644 313.462L702.486 321.325C712.642 322.808 722.475 326.286 731.553 331.559C738.467 335.576 746.264 339.687 749.674 339.99C756.462 340.594 756.733 334.257 756.733 334.257L739.889 303.918C742.309 303.222 744.633 302.467 746.842 301.649C819.386 261.906 804.359 222.896 701.762 184.621L701.761 178.601H623.135ZM661.376 258.729L661.727 258.747C661.952 258.784 662.191 258.808 662.444 258.816C680.634 259.453 705.127 262.239 705.127 262.239L659.662 273.319C633.94 266.453 611.601 259.927 612.946 258.433C614.2 257.039 650.511 258.314 661.376 258.729Z" fill="#010101"/>
<path fill-rule="evenodd" clip-rule="evenodd" d="M720.737 288.827C722.978 301.924 724.889 315.27 726.075 328.643C727.928 329.545 729.756 330.515 731.553 331.559C738.467 335.576 746.264 339.687 749.674 339.99C756.326 340.582 756.72 334.508 756.733 334.265L756.734 334.257L735.313 295.675C733.909 293.147 731.632 291.376 729.013 290.779C726.992 290.318 724.172 289.653 720.737 288.827ZM607.455 302.756L604.683 326.187C611.164 329.633 616.14 324.882 619.385 319.656C623.004 313.829 629.022 310.435 635.385 310.772C635.78 310.793 636.183 310.814 636.595 310.835C625.617 308.295 615.958 305.621 607.455 302.756Z" fill="#2F6858"/>
<path fill-rule="evenodd" clip-rule="evenodd" d="M720.737 288.827C722.978 301.923 724.888 315.27 726.075 328.643C718.568 324.99 710.631 322.515 702.486 321.325L686.694 319.019C690.269 307.036 693.989 295.098 698.035 283.232C706.827 285.439 714.724 287.38 720.737 288.827Z" fill="#C68E80"/>
<path fill-rule="evenodd" clip-rule="evenodd" d="M659.707 273.331C659.652 273.588 659.795 273.848 660.027 273.909C671.75 277.036 684.89 280.423 697.94 283.7C698.172 283.758 698.404 283.596 698.456 283.337C698.509 283.079 698.363 282.822 698.13 282.763C685.084 279.488 671.948 276.101 660.228 272.976C659.996 272.914 659.763 273.073 659.707 273.331ZM720.778 258.008L705.036 261.77C704.803 261.826 704.655 262.081 704.705 262.34C704.755 262.6 704.985 262.764 705.218 262.709L720.96 258.947C721.193 258.891 721.341 258.636 721.291 258.377C721.241 258.118 721.011 257.953 720.778 258.008ZM603.601 255.909C603.544 256.167 603.687 256.426 603.918 256.489L612.845 258.899C613.076 258.962 613.31 258.804 613.366 258.546C613.423 258.288 613.28 258.029 613.049 257.966L604.122 255.556C603.89 255.493 603.657 255.652 603.601 255.909Z" fill="#B9B3B8"/>
<path fill-rule="evenodd" clip-rule="evenodd" d="M642.155 33.0705C642.155 33.0705 637.788 42.7141 629.665 45.6864C626.914 46.6928 624.354 48.2829 622.311 50.562C618.569 54.7356 614.185 62.294 614.717 74.522C615.629 95.4707 619.889 96.3052 608.636 101.215C593.449 107.841 596.78 138.888 617.454 143.45C626.897 145.534 636.524 148.141 645.335 152.497C655.969 157.754 667.532 169.698 679.733 163.564C690.015 158.394 693.966 145.439 691.711 133.794C690.378 126.908 687.51 120.525 684.643 114.243C681.853 108.129 679.943 102.076 685.289 96.9965C688.182 94.2484 691.934 92.9905 694.362 89.5932C699.682 82.1476 693.51 69.8303 693.461 61.5133C693.226 22.0159 682.958 26.035 682.958 26.035L661.538 18.9403L642.155 33.0705Z" fill="#010101"/>
<path fill-rule="evenodd" clip-rule="evenodd" d="M638.836 46.9329C638.74 46.9283 638.643 46.926 638.546 46.926C635.153 46.926 632.403 49.4931 632.403 52.6604C632.403 55.8277 635.153 58.3949 638.546 58.3949C639.863 58.3949 641.081 58.0041 642.08 57.3439C642.394 57.137 642.79 57.2378 642.995 57.5729C646.567 63.3977 652.72 67.7307 660.05 69.292C660.687 69.4279 661.133 70.0688 661.095 70.7875L660.395 84.3507H671.817L671.116 70.7875C671.079 70.0688 671.525 69.4283 672.161 69.292C679.534 67.7215 685.715 63.3477 689.277 57.4721C689.488 57.1235 689.902 57.0309 690.222 57.2546C691.246 57.9695 692.514 58.3949 693.89 58.3949C697.283 58.3949 700.033 55.8277 700.033 52.6604C700.033 49.4931 697.283 46.926 693.89 46.926C693.671 46.926 693.455 46.9375 693.242 46.9596C693.018 46.9827 692.814 46.8772 692.686 46.6997C692.6 46.5756 692.549 46.4239 692.552 46.2549C692.549 46.4246 692.6 46.5788 692.686 46.6997L692.691 46.8536C692.691 46.8536 671.012 44.0569 667.579 30.86L667.56 30.8815C666.94 31.5788 651.332 48.9886 638.979 46.9414L638.836 46.9329Z" fill="#C68E80"/>
<path fill-rule="evenodd" clip-rule="evenodd" d="M631.055 27.0478C635.28 9.6351 659.046 9.0484 669.608 11.7874C680.171 14.5265 700.08 17.2238 689.501 26.4606C679.643 35.0691 626.83 44.4601 631.055 27.0478Z" fill="#2F6858"/>
<path fill-rule="evenodd" clip-rule="evenodd" d="M660.814 20.5272C660.492 20.7835 660.056 20.772 659.746 20.4974C658.805 19.6615 656.733 17.7214 657.524 17.501C658.537 17.2197 661.5 17.4256 661.538 18.9404C661.558 19.7427 661.177 20.2381 660.814 20.5272Z" fill="#5BA092"/>
<path fill-rule="evenodd" clip-rule="evenodd" d="M681.864 51.8214C681.982 51.4461 681.805 51.0351 681.467 50.9034C681.129 50.7717 680.759 50.9692 680.641 51.3445C680.612 51.4364 680.544 51.6174 680.436 51.857C680.252 52.262 680.025 52.6675 679.752 53.043C678.997 54.082 678.061 54.6874 676.905 54.6874C675.733 54.6874 674.766 54.1176 673.974 53.146C673.69 52.7973 673.45 52.4215 673.254 52.0463C673.139 51.8252 673.067 51.6587 673.035 51.5752C672.898 51.2079 672.519 51.0337 672.188 51.1862C671.858 51.3387 671.701 51.7601 671.838 52.1275C672.031 52.6418 672.413 53.3764 673.013 54.1129C674.033 55.3639 675.33 56.1277 676.905 56.1277C678.497 56.1277 679.779 55.2989 680.761 53.9476C681.335 53.1569 681.691 52.3705 681.864 51.8214Z" fill="#010101"/>
<path fill-rule="evenodd" clip-rule="evenodd" d="M664.32 51.7755C664.482 51.4211 664.355 50.9875 664.036 50.8069C663.717 50.6264 663.327 50.7673 663.165 51.1217C663.124 51.21 663.036 51.3813 662.901 51.6075C662.674 51.9897 662.405 52.3725 662.098 52.7276C661.247 53.7103 660.281 54.2851 659.214 54.2851C658.183 54.2851 657.328 53.6696 656.628 52.6016C656.371 52.2107 656.156 51.7879 655.982 51.3652C655.879 51.1142 655.813 50.9237 655.785 50.8255C655.675 50.4469 655.31 50.2389 654.969 50.3608C654.629 50.4827 654.442 50.8885 654.551 51.2671C654.595 51.4163 654.678 51.6588 654.803 51.9646C655.012 52.4697 655.269 52.9749 655.58 53.45C656.503 54.8564 657.709 55.7255 659.214 55.7255C660.683 55.7255 661.958 54.9666 663.032 53.7263C663.66 53.001 664.089 52.2781 664.32 51.7755Z" fill="#010101"/>
<path fill-rule="evenodd" clip-rule="evenodd" d="M673.69 60.2985C673.887 59.9664 673.804 59.5197 673.505 59.301C673.207 59.0822 672.805 59.1741 672.608 59.5063C672.566 59.577 672.466 59.7229 672.308 59.9189C672.035 60.256 671.702 60.5952 671.309 60.9125C669.574 62.312 667.319 62.8284 664.459 61.9279C664.115 61.8195 663.757 62.0418 663.659 62.4245C663.561 62.8072 663.762 63.2053 664.106 63.3137C667.361 64.3387 670.024 63.729 672.07 62.0782C672.88 61.4248 673.414 60.7642 673.69 60.2985Z" fill="#010101"/>
<path fill-rule="evenodd" clip-rule="evenodd" d="M702.562 92.1172L691.891 129.404C693.527 149.404 700.179 195.815 700.179 195.815C700.179 195.815 689.588 238.612 685.665 249.39C681.742 260.169 684.859 272.565 690.345 280.039C693.615 284.494 696.307 286.86 698.313 287.483C699.819 287.949 701.2 286.841 701.546 286.327C702.457 284.977 702.239 283.183 702.239 283.183C702.239 283.183 703.349 284.551 705.761 285.622C709.999 287.503 711.213 282.968 711.213 282.968C711.213 282.968 713.713 285.128 715.965 284.427C718.096 283.764 718.21 281.307 718.216 281.046L718.217 281.023C718.217 281.023 722.541 285.128 725.658 281.987C728.05 279.576 715.483 255.894 715.483 255.894C715.483 255.894 716.787 253.008 722.117 239.593C734.672 207.997 732.245 179.827 732.245 179.827C727.929 113.281 717.578 100.267 702.562 92.1172ZM640.478 119.487C640.478 119.487 636.705 121.085 635.897 125.877C635.088 130.669 635.543 136.214 635.543 136.214L606.233 127.433C606.233 127.433 604.593 125.335 587.193 196.928C585.518 203.82 582.923 216.631 600.588 217.207C607.326 217.426 613.873 214.684 618.946 209.751C626.793 202.118 640.722 186.859 651.908 165.411C651.908 165.411 663.386 166.511 668.237 164.714C668.237 164.714 671.787 163.637 671.733 158.181C671.733 158.181 676.143 156.926 675.604 151.136C675.604 151.136 675.604 149.838 674.705 149.039C674.705 149.039 678.289 146.888 677.779 142.476C677.424 139.408 676.053 138.656 676.053 138.656L676.075 138.632C676.422 138.24 680.703 133.233 678.029 127.674C675.245 121.883 672.1 124.579 672.1 124.579L671.112 131.567C671.112 131.567 661.859 135.162 653.324 134.763C644.79 134.363 641.557 131.767 641.557 131.767L640.478 119.487ZM656.962 84.1558C656.962 84.1558 665.71 94.6375 678.864 84.3348C678.864 84.3348 666.626 83.2621 656.962 84.1558Z" fill="#C68E80"/>
<mask id="mask2" mask-type="alpha" maskUnits="userSpaceOnUse" x="605" y="84" width="121" height="101">
<path fill-rule="evenodd" clip-rule="evenodd" d="M657.002 84.152C655.778 84.2457 654.635 84.3642 653.603 84.5097C632.341 87.506 614.322 102.972 605.845 127.471C604.869 130.29 635.293 140.198 635.543 136.215C635.663 134.314 635.088 130.669 635.897 125.877C636.705 121.085 640.478 119.487 640.478 119.487L641.557 131.767C641.557 131.767 644.79 134.363 653.325 134.763C661.859 135.162 671.112 131.568 671.112 131.568L672.101 124.579C672.101 124.579 675.245 121.883 678.029 127.674C680.815 133.464 676.053 138.656 676.053 138.656C676.053 138.656 677.424 139.408 677.779 142.477C678.29 146.888 674.706 149.039 674.706 149.039C675.604 149.838 675.604 151.136 675.604 151.136C676.143 156.927 671.733 158.181 671.733 158.181C671.787 163.637 668.238 164.714 668.238 164.714C663.387 166.511 651.908 165.412 651.908 165.412C650.291 168.512 642.183 181.286 640.478 184.123C651.113 185.572 674.202 185.879 695.025 179.8C695.537 179.651 697.402 179.254 697.919 179.097L694.598 139.002C694.598 139.002 714.656 141.681 725.22 126.181C719.795 104.475 710.936 95.9366 704.533 92.1173C695.53 87.4531 695.025 87.29 686.301 85.3558C684.607 84.9803 681.945 84.6452 678.795 84.3884C665.679 94.6006 656.962 84.1559 656.962 84.1559L657.002 84.152Z" fill="white"/>
</mask>
<g mask="url(#mask2)">
<path fill-rule="evenodd" clip-rule="evenodd" d="M657.002 84.152C655.778 84.2457 654.635 84.3642 653.603 84.5097C632.341 87.506 614.322 102.972 605.845 127.471C604.869 130.29 635.293 140.198 635.543 136.215C635.663 134.314 635.088 130.669 635.897 125.877C636.705 121.085 640.478 119.487 640.478 119.487L641.557 131.767C641.557 131.767 644.79 134.363 653.325 134.763C661.859 135.162 671.112 131.568 671.112 131.568L672.101 124.579C672.101 124.579 675.245 121.883 678.029 127.674C680.815 133.464 676.053 138.656 676.053 138.656C676.053 138.656 677.424 139.408 677.779 142.477C678.29 146.888 674.706 149.039 674.706 149.039C675.604 149.838 675.604 151.136 675.604 151.136C676.143 156.927 671.733 158.181 671.733 158.181C671.787 163.637 668.238 164.714 668.238 164.714C663.387 166.511 651.908 165.412 651.908 165.412C650.291 168.512 642.183 181.286 640.478 184.123C651.113 185.572 674.202 185.879 695.025 179.8C695.537 179.651 697.402 179.254 697.919 179.097L694.598 139.002C694.598 139.002 714.656 141.681 725.22 126.181C719.795 104.475 710.936 95.9366 704.533 92.1173C695.53 87.4531 695.025 87.29 686.301 85.3558C684.607 84.9803 681.945 84.6452 678.795 84.3884C665.679 94.6006 656.962 84.1559 656.962 84.1559L657.002 84.152Z" fill="#F3705A"/>
<path fill-rule="evenodd" clip-rule="evenodd" d="M640.651 184.187L639.597 188.843C639.509 189.229 639.72 189.62 640.067 189.717C640.414 189.814 640.766 189.58 640.854 189.194L641.908 184.538C641.995 184.153 641.785 183.761 641.437 183.664C641.09 183.567 640.738 183.801 640.651 184.187ZM704.453 183.809L704.009 188.584C703.972 188.98 704.231 189.334 704.587 189.375C704.943 189.415 705.261 189.128 705.298 188.732L705.742 183.957C705.779 183.561 705.52 183.207 705.164 183.166C704.808 183.125 704.49 183.413 704.453 183.809ZM670.485 186.773C670.371 187.15 670.553 187.558 670.892 187.686L674.984 189.223C675.323 189.35 675.691 189.148 675.806 188.771C675.92 188.395 675.738 187.986 675.399 187.859L671.307 186.321C670.968 186.194 670.6 186.396 670.485 186.773ZM719.711 181.982C719.601 182.361 719.789 182.766 720.13 182.888L724.243 184.356C724.584 184.477 724.949 184.269 725.058 183.89C725.167 183.511 724.98 183.106 724.639 182.984L720.526 181.517C720.185 181.395 719.82 181.604 719.711 181.982ZM620.566 171.759L619.767 176.477C619.701 176.868 619.932 177.245 620.284 177.318C620.636 177.392 620.974 177.135 621.041 176.744L621.84 172.026C621.906 171.635 621.675 171.258 621.323 171.185C620.971 171.111 620.632 171.368 620.566 171.759ZM693.202 170.16C693.063 170.526 693.218 170.948 693.547 171.103L697.528 172.968C697.858 173.123 698.238 172.951 698.377 172.584C698.516 172.218 698.361 171.795 698.032 171.641L694.051 169.776C693.721 169.621 693.341 169.793 693.202 170.16ZM646.088 171.172C645.73 171.172 645.44 171.495 645.44 171.892C645.44 172.29 645.73 172.613 646.088 172.613H650.408C650.766 172.613 651.056 172.29 651.056 171.892C651.056 171.495 650.766 171.172 650.408 171.172H646.088ZM628.96 165.33C628.731 165.635 628.767 166.089 629.042 166.344L632.358 169.421C632.633 169.676 633.042 169.635 633.271 169.33C633.501 169.025 633.464 168.57 633.189 168.315L629.873 165.239C629.598 164.984 629.189 165.025 628.96 165.33ZM664.843 162.582L663.789 167.238C663.702 167.624 663.913 168.015 664.26 168.112C664.607 168.209 664.959 167.975 665.046 167.589L666.1 162.933C666.188 162.548 665.977 162.156 665.63 162.059C665.283 161.962 664.931 162.196 664.843 162.582ZM605.662 165.103C605.63 165.499 605.894 165.849 606.25 165.884L610.553 166.307C610.91 166.342 611.224 166.05 611.256 165.654C611.288 165.257 611.024 164.908 610.668 164.873L606.364 164.449C606.008 164.414 605.693 164.707 605.662 165.103ZM680.183 157.836L679.384 162.554C679.318 162.945 679.549 163.322 679.901 163.395C680.253 163.469 680.592 163.212 680.658 162.821L681.457 158.102C681.523 157.712 681.292 157.335 680.94 157.261C680.588 157.188 680.25 157.445 680.183 157.836ZM705.705 157.249C705.347 157.249 705.057 157.571 705.057 157.969C705.057 158.367 705.347 158.689 705.705 158.689H710.025C710.383 158.689 710.673 158.367 710.673 157.969C710.673 157.571 710.383 157.249 710.025 157.249H705.705ZM688.577 151.407C688.348 151.712 688.385 152.166 688.659 152.421L691.976 155.498C692.25 155.753 692.659 155.712 692.888 155.407C693.118 155.101 693.081 154.647 692.806 154.392L689.49 151.315C689.215 151.06 688.807 151.101 688.577 151.407ZM722.301 147.698L721.247 152.354C721.159 152.74 721.37 153.131 721.717 153.229C722.064 153.326 722.416 153.092 722.503 152.706L723.557 148.05C723.645 147.664 723.434 147.273 723.087 147.176C722.74 147.079 722.388 147.313 722.301 147.698ZM651.362 147.634L650.214 152.263C650.118 152.646 650.321 153.043 650.666 153.148C651.011 153.254 651.368 153.029 651.463 152.646L652.612 148.017C652.707 147.634 652.504 147.237 652.159 147.132C651.814 147.026 651.458 147.251 651.362 147.634ZM665.279 151.18C665.247 151.576 665.511 151.925 665.867 151.961L670.171 152.384C670.527 152.419 670.842 152.126 670.873 151.73C670.905 151.334 670.641 150.984 670.285 150.949L665.982 150.526C665.625 150.491 665.311 150.783 665.279 151.18ZM620.821 140.571L617.147 143.096C616.843 143.306 616.749 143.749 616.937 144.088C617.125 144.426 617.525 144.531 617.829 144.321L621.503 141.795C621.807 141.586 621.901 141.142 621.713 140.804C621.525 140.466 621.125 140.361 620.821 140.571ZM636.627 137.734L636.183 142.509C636.147 142.905 636.405 143.259 636.761 143.3C637.117 143.341 637.436 143.053 637.473 142.657L637.917 137.882C637.953 137.486 637.695 137.132 637.339 137.091C636.983 137.05 636.664 137.338 636.627 137.734ZM710.98 133.711L709.831 138.339C709.736 138.723 709.938 139.119 710.283 139.225C710.628 139.331 710.985 139.106 711.08 138.722L712.229 134.094C712.324 133.711 712.122 133.314 711.777 133.208C711.432 133.103 711.075 133.328 710.98 133.711ZM652.533 133.268C652.424 133.647 652.612 134.053 652.952 134.174L657.066 135.642C657.406 135.763 657.771 135.555 657.881 135.176C657.99 134.797 657.803 134.392 657.462 134.27L653.348 132.803C653.008 132.681 652.643 132.89 652.533 133.268ZM603.956 133C603.841 133.377 604.023 133.786 604.362 133.913L608.455 135.45C608.794 135.578 609.162 135.376 609.276 134.999C609.391 134.622 609.209 134.213 608.87 134.086L604.777 132.549C604.438 132.421 604.071 132.623 603.956 133ZM680.438 126.647L676.764 129.173C676.46 129.382 676.366 129.826 676.554 130.164C676.743 130.503 677.142 130.607 677.446 130.398L681.12 127.872C681.425 127.663 681.519 127.219 681.33 126.881C681.142 126.543 680.743 126.438 680.438 126.647ZM696.245 123.81L695.801 128.586C695.764 128.982 696.023 129.336 696.379 129.376C696.735 129.417 697.053 129.13 697.09 128.734L697.534 123.958C697.571 123.563 697.312 123.209 696.956 123.168C696.6 123.127 696.281 123.415 696.245 123.81ZM662.062 123.654C661.947 124.031 662.129 124.439 662.468 124.567L666.561 126.104C666.9 126.231 667.267 126.029 667.382 125.652C667.497 125.276 667.315 124.867 666.976 124.739L662.883 123.202C662.544 123.075 662.176 123.277 662.062 123.654ZM625.377 120.228C625.237 120.594 625.392 121.017 625.722 121.171L629.703 123.036C630.032 123.191 630.413 123.019 630.552 122.653C630.691 122.286 630.536 121.864 630.206 121.709L626.225 119.844C625.896 119.69 625.516 119.861 625.377 120.228ZM712.151 119.345C712.041 119.724 712.229 120.129 712.57 120.251L716.683 121.718C717.024 121.84 717.389 121.632 717.498 121.253C717.607 120.874 717.42 120.469 717.079 120.347L712.966 118.879C712.625 118.758 712.26 118.966 712.151 119.345ZM647.547 111.312L647.103 116.087C647.066 116.483 647.325 116.837 647.681 116.878C648.037 116.918 648.355 116.631 648.392 116.235L648.836 111.46C648.873 111.064 648.614 110.71 648.258 110.669C647.902 110.628 647.584 110.916 647.547 111.312ZM612.358 107.904L611.559 112.623C611.493 113.013 611.724 113.39 612.076 113.463C612.427 113.537 612.766 113.28 612.832 112.889L613.632 108.171C613.698 107.78 613.466 107.403 613.115 107.33C612.763 107.256 612.424 107.513 612.358 107.904ZM684.994 106.305C684.855 106.671 685.009 107.094 685.339 107.248L689.32 109.113C689.65 109.268 690.03 109.096 690.169 108.729C690.308 108.363 690.153 107.94 689.823 107.786L685.843 105.921C685.513 105.766 685.133 105.938 684.994 106.305ZM653.799 95.7343L650.633 99.0012C650.371 99.2719 650.356 99.7275 650.599 100.019C650.843 100.31 651.253 100.327 651.515 100.057L654.681 96.7897C654.943 96.5191 654.958 96.0634 654.715 95.772C654.471 95.4805 654.061 95.4636 653.799 95.7343ZM673.043 91.5677L672.244 96.286C672.178 96.6768 672.409 97.0533 672.761 97.1269C673.113 97.2005 673.451 96.9433 673.518 96.5524L674.317 91.8342C674.383 91.4433 674.152 91.0668 673.8 90.9932C673.448 90.9196 673.109 91.1768 673.043 91.5677ZM697.497 93.3941C697.139 93.3941 696.849 93.7165 696.849 94.1142C696.849 94.512 697.139 94.8344 697.497 94.8344H701.817C702.175 94.8344 702.465 94.512 702.465 94.1142C702.465 93.7165 702.175 93.3941 701.817 93.3941H697.497ZM716.468 85.524L715.414 90.18C715.327 90.5657 715.537 90.9571 715.885 91.0541C716.232 91.1512 716.584 90.9172 716.671 90.5314L717.725 85.8754C717.813 85.4897 717.602 85.0984 717.255 85.0013C716.908 84.9043 716.556 85.1383 716.468 85.524ZM623.309 87.5803C623.17 87.9468 623.325 88.3691 623.655 88.5237L627.635 90.3887C627.965 90.5433 628.345 90.3714 628.484 90.0049C628.623 89.6384 628.469 89.216 628.139 89.0615L624.158 87.1964C623.828 87.0419 623.448 87.2138 623.309 87.5803Z" fill="#010101"/>
</g>
<path fill-rule="evenodd" clip-rule="evenodd" d="M671.112 131.568L673.89 108.487H639.743L641.556 131.767C641.556 131.767 651.144 139.962 671.112 131.568Z" fill="#94C0E9"/>
<path fill-rule="evenodd" clip-rule="evenodd" d="M637.287 108.617H675.644L674.78 102.899H638.151L637.287 108.617Z" fill="#3973B0"/>
<path fill-rule="evenodd" clip-rule="evenodd" d="M652.137 80.1785H654.253C654.876 80.1785 655.388 80.7244 655.415 81.4157L656.232 102.922H651.788L650.975 81.5247C650.947 80.7906 651.475 80.1785 652.137 80.1785Z" fill="#2F6858"/>
<path fill-rule="evenodd" clip-rule="evenodd" d="M692.567 269.115C692.35 269.225 692.255 269.51 692.354 269.751C692.86 270.978 693.604 272.357 694.551 273.861C695.213 274.912 695.966 276.01 696.793 277.143C697.917 278.682 699.121 280.207 700.325 281.65C700.746 282.155 701.138 282.614 701.489 283.018C701.612 283.159 701.722 283.284 701.816 283.391C701.873 283.455 701.913 283.499 701.933 283.522C702.102 283.71 702.375 283.71 702.544 283.523C702.713 283.336 702.713 283.032 702.545 282.844C702.525 282.823 702.488 282.78 702.432 282.717C702.339 282.613 702.232 282.49 702.11 282.35C701.763 281.951 701.376 281.497 700.959 280.997C699.767 279.569 698.575 278.059 697.464 276.537C696.649 275.422 695.908 274.341 695.259 273.311C694.339 271.85 693.621 270.519 693.14 269.351C693.04 269.11 692.784 269.004 692.567 269.115ZM701.137 268.191C700.931 268.324 700.86 268.618 700.979 268.847C700.995 268.877 701.025 268.934 701.068 269.016C701.14 269.152 701.224 269.31 701.319 269.488C701.592 269.995 701.9 270.56 702.24 271.169C703.21 272.908 704.231 274.648 705.257 276.273C705.935 277.346 706.593 278.334 707.223 279.218C708.68 281.259 709.945 282.687 710.992 283.38C711.197 283.516 711.462 283.441 711.584 283.214C711.706 282.986 711.639 282.691 711.434 282.555C710.501 281.938 709.296 280.577 707.9 278.621C707.281 277.753 706.633 276.78 705.964 275.721C704.949 274.113 703.936 272.388 702.974 270.663C702.638 270.059 702.331 269.499 702.062 268.996C701.967 268.82 701.884 268.664 701.813 268.53C701.771 268.449 701.742 268.394 701.727 268.366C701.608 268.137 701.344 268.058 701.137 268.191ZM708.483 264.522C708.272 264.646 708.191 264.936 708.303 265.171C708.318 265.203 708.348 265.266 708.392 265.357C708.464 265.508 708.549 265.683 708.645 265.88C708.918 266.443 709.227 267.069 709.565 267.745C710.53 269.674 711.534 271.603 712.526 273.405C712.973 274.218 713.409 274.987 713.831 275.707C715.547 278.64 716.946 280.619 717.969 281.416C718.164 281.569 718.433 281.516 718.57 281.299C718.707 281.082 718.66 280.783 718.465 280.63C717.566 279.929 716.209 278.01 714.555 275.184C714.138 274.472 713.706 273.709 713.263 272.903C712.278 271.114 711.28 269.196 710.32 267.278C709.984 266.606 709.677 265.983 709.405 265.424C709.31 265.228 709.226 265.054 709.154 264.905L709.109 264.811C709.09 264.771 709.076 264.741 709.067 264.722C708.956 264.488 708.694 264.398 708.483 264.522ZM707.229 192.283C705.945 192.557 704.818 192.869 703.836 193.212C702.459 193.694 701.427 194.214 700.689 194.741C700.224 195.073 699.955 195.346 699.833 195.528C699.69 195.741 699.73 196.041 699.921 196.2C700.113 196.358 700.383 196.314 700.526 196.102C700.584 196.015 700.776 195.82 701.156 195.549C701.826 195.07 702.788 194.585 704.095 194.128C705.044 193.797 706.14 193.493 707.392 193.226C707.626 193.176 707.78 192.924 707.735 192.663C707.69 192.403 707.463 192.233 707.229 192.283ZM635.565 135.735C635.326 135.722 635.124 135.926 635.112 136.191L635.111 136.208C635.11 136.225 635.109 136.249 635.105 136.345C635.099 136.472 635.092 136.618 635.084 136.784C635.061 137.256 635.034 137.783 635.004 138.35C634.918 139.97 634.821 141.591 634.717 143.102C634.653 144.019 634.589 144.868 634.524 145.635C634.479 145.675 634.426 145.722 634.365 145.776C634.12 145.995 633.836 146.25 633.516 146.539C632.602 147.364 631.583 148.291 630.486 149.301C627.351 152.188 624.217 155.158 621.29 158.047C620.414 158.913 619.568 159.759 618.756 160.585C615.331 164.066 612.591 167.083 610.706 169.503C610.549 169.704 610.569 170.007 610.75 170.181C610.93 170.354 611.203 170.332 611.359 170.132C613.218 167.745 615.937 164.752 619.339 161.293C620.148 160.471 620.991 159.627 621.864 158.765C624.782 155.884 627.91 152.921 631.037 150.041C632.132 149.033 633.148 148.107 634.06 147.285C634.379 146.997 634.663 146.743 634.907 146.524C635.053 146.393 635.154 146.304 635.206 146.258C635.297 146.177 635.355 146.058 635.366 145.929C635.438 145.103 635.509 144.18 635.578 143.176C635.683 141.658 635.78 140.032 635.866 138.407C635.897 137.838 635.923 137.31 635.946 136.835C635.954 136.669 635.961 136.522 635.967 136.395C635.973 136.266 635.973 136.266 635.975 136.239C635.987 135.974 635.803 135.748 635.565 135.735ZM671.583 157.731C671.557 157.742 671.502 157.763 671.419 157.794C671.278 157.847 671.112 157.906 670.919 157.969C670.368 158.152 669.727 158.335 669.004 158.506C667.054 158.968 664.889 159.257 662.564 159.288C662.325 159.291 662.134 159.508 662.137 159.774C662.14 160.039 662.335 160.251 662.574 160.248C664.959 160.217 667.18 159.92 669.185 159.445C669.93 159.269 670.593 159.079 671.166 158.89C671.368 158.823 671.544 158.761 671.694 158.705C671.786 158.67 671.85 158.645 671.884 158.631C672.108 158.539 672.221 158.262 672.138 158.014C672.055 157.765 671.806 157.639 671.583 157.731ZM674.467 148.639C674.425 148.67 674.32 148.735 674.145 148.824C673.84 148.98 673.455 149.137 672.985 149.286C670.613 150.034 667.211 150.247 662.624 149.587C662.388 149.552 662.171 149.738 662.14 150.001C662.11 150.264 662.277 150.505 662.513 150.539C667.212 151.215 670.731 150.995 673.221 150.209C674.105 149.93 674.667 149.644 674.944 149.44C675.143 149.293 675.197 148.995 675.066 148.774C674.934 148.553 674.666 148.493 674.467 148.639ZM675.854 138.23C675.818 138.251 675.74 138.293 675.622 138.354C675.42 138.457 675.178 138.572 674.897 138.697C674.088 139.055 673.127 139.414 672.017 139.75C669.614 140.477 666.865 140.99 663.784 141.195C663.546 141.211 663.364 141.438 663.379 141.703C663.393 141.967 663.597 142.169 663.836 142.153C666.977 141.945 669.785 141.421 672.244 140.677C673.386 140.331 674.379 139.96 675.217 139.589C675.512 139.458 675.768 139.336 675.983 139.226C676.114 139.159 676.204 139.11 676.252 139.082C676.464 138.96 676.546 138.67 676.436 138.435C676.326 138.199 676.066 138.108 675.854 138.23ZM672.728 128.617C672.719 128.748 672.616 129.049 672.314 129.477C671.767 130.252 670.803 131.046 669.312 131.799C666.484 133.228 662.164 134.308 656.081 134.883C655.844 134.905 655.667 135.138 655.688 135.402C655.708 135.666 655.917 135.862 656.155 135.84C662.328 135.256 666.741 134.153 669.669 132.673C671.28 131.859 672.355 130.974 672.994 130.07C673.403 129.49 673.567 129.008 673.589 128.691C673.608 128.427 673.43 128.196 673.192 128.176C672.954 128.155 672.746 128.353 672.728 128.617Z" fill="#9B7368"/>
<path fill-rule="evenodd" clip-rule="evenodd" d="M109.216 359.428H129.853L87.3959 427.299C86.0106 429.513 83.5895 430.858 80.9858 430.858C77.7558 430.858 75.6501 427.448 77.0843 424.54L109.216 359.428Z" fill="#E3D4C5"/>
<path fill-rule="evenodd" clip-rule="evenodd" d="M266.779 359.428H246.142L288.599 427.299C289.984 429.513 292.405 430.858 295.009 430.858C298.24 430.858 300.345 427.448 298.911 424.54L266.779 359.428Z" fill="#E3D4C5"/>
<path fill-rule="evenodd" clip-rule="evenodd" d="M332.925 341.716C332.925 363.364 268.298 380.915 188.576 380.915C108.854 380.915 44.2269 363.364 44.2269 341.716C44.2269 320.067 108.854 302.516 188.576 302.516C268.298 302.516 332.925 320.067 332.925 341.716Z" fill="#CDB1AA"/>
<path fill-rule="evenodd" clip-rule="evenodd" d="M143.213 328.656L190.256 326.58L192.337 328.068V331.705L142.115 364.074L92.9911 362.39L92.8253 358.087L143.213 328.656Z" fill="#E3D4C5"/>
<path fill-rule="evenodd" clip-rule="evenodd" d="M142.091 360.762L190.256 329.339V318.777L142.091 349.615L92.9421 348.017V359.573L142.091 360.762Z" fill="#F4F0F0"/>
<path fill-rule="evenodd" clip-rule="evenodd" d="M143.204 315.873L192.337 317.475L190.256 321.101V318.777L142.106 349.555L93.1142 348.706L92.2468 347.232L143.204 315.873Z" fill="#E3D4C5"/>
<path fill-rule="evenodd" clip-rule="evenodd" d="M236.307 314.131H263.499L262.456 331.501C262.142 336.749 257.813 340.844 252.58 340.844H247.226C241.993 340.844 237.664 336.749 237.349 331.501L236.307 314.131Z" fill="#F3705A"/>
<path fill-rule="evenodd" clip-rule="evenodd" d="M260.606 335.037L261.015 331.63C265.744 331.252 271.382 329.336 271.382 322.361C271.382 320.087 270.508 319.553 270.219 319.377C268.372 318.253 264.22 319.553 262.037 320.64L260.636 317.895C261.371 317.527 267.928 314.372 271.846 316.757C273.053 317.491 274.491 319.059 274.491 322.361C274.491 329.527 269.011 334.365 260.606 335.037Z" fill="#F3705A"/>
<path fill-rule="evenodd" clip-rule="evenodd" d="M263.499 314.421C263.499 316.827 257.412 318.777 249.903 318.777C242.394 318.777 236.307 316.827 236.307 314.421C236.307 312.016 242.394 310.066 249.903 310.066C257.412 310.066 263.499 312.016 263.499 314.421Z" fill="#E74B33"/>
<path fill-rule="evenodd" clip-rule="evenodd" d="M272.177 296.709C272.496 296.709 272.755 296.969 272.755 297.29C272.755 299.876 271.801 302 269.971 303.9C268.616 305.308 267.281 306.25 264.093 308.236C260.989 310.17 259.702 311.079 258.436 312.393C256.805 314.087 255.977 315.929 255.977 318.196C255.977 318.366 255.597 318.366 255.289 318.417C254.981 318.467 254.82 318.517 254.82 318.196C254.82 315.61 255.775 313.485 257.604 311.586C258.96 310.178 260.295 309.235 263.483 307.249C266.587 305.315 267.874 304.407 269.139 303.092C270.77 301.399 271.598 299.557 271.598 297.29C271.598 296.969 271.857 296.709 272.177 296.709ZM253.101 288.679C256.977 291.328 258.87 293.91 258.87 297.621C258.87 300.171 257.914 302.265 256.083 304.136C254.726 305.522 253.391 306.45 250.204 308.404C249.534 308.815 249.238 308.998 248.872 309.227C244.165 312.18 242.095 314.428 242.095 317.977C242.095 318.017 241.827 317.936 241.495 317.86C241.163 317.784 240.944 317.784 240.944 317.735C240.944 313.803 243.337 311.329 248.259 308.242C248.629 308.01 248.928 307.826 249.599 307.414C252.704 305.51 253.992 304.616 255.257 303.322C256.887 301.657 257.713 299.847 257.713 297.621C257.713 294.374 256.042 292.094 252.449 289.64C252.185 289.459 252.117 289.098 252.297 288.833C252.477 288.568 252.836 288.499 253.101 288.679Z" fill="#F4F0F0"/>
</svg>
