<svg width="108" height="50" viewBox="0 0 108 50" fill="none" xmlns="http://www.w3.org/2000/svg">
<path fill-rule="evenodd" clip-rule="evenodd" d="M35.4471 25.5812C33.9754 27.9557 31.0018 29.0227 28.9438 30.8649C24.5288 34.613 18.5264 35.9915 14.1108 39.5698C12.9064 41.6627 10.3468 42.3598 8.68273 44.033C7.58225 44.9673 0.971894 50.1115 0.397304 47.6859C-1.00237 45.187 1.71281 43.0862 2.1438 40.7396C2.03955 34.4688 2.93808 28.2318 2.84799 21.9596C2.92439 16.5278 1.6722 11.2359 1.13682 5.8443C0.911836 -1.90979 8.67775 9.54561 11.5633 7.21317C16.9874 4.44229 21.8927 16.0428 26.0419 18.3459C28.7072 19.3623 30.4436 22.5435 33.1622 22.9823C34.6011 22.7746 34.7352 24.7056 35.4471 25.5812Z" fill="#FF3B53"/>
<path fill-rule="evenodd" clip-rule="evenodd" d="M85.4875 41.7231C86.0158 41.4218 86.5979 40.7938 86.3616 40.2091C85.8402 39.6798 83.9669 41.4309 85.4875 41.7231ZM67.9647 25.3805C69.7923 21.7393 74.6728 20.1853 78.0155 18.0104C82.2752 15.8319 85.629 12.3817 89.2975 9.32765C89.7237 9.03156 90.1257 8.74932 90.1206 8.1391C90.9382 6.5703 93.7478 8.20274 94.2039 9.5783C96.8826 15.3976 102.609 19.3708 103.326 26.1393C105.876 31.4281 89.63 36.9613 89.8475 39.1898C90.166 43.5555 86.4557 46.1996 82.73 43.4351C81.2335 42.2322 79.1657 44.9567 77.9932 42.8855C75.9636 36.282 70.1091 31.7903 67.9647 25.3805Z" fill="#FFC43C"/>
<path fill-rule="evenodd" clip-rule="evenodd" d="M39.2536 18.557C41.2154 12.0879 57.3624 34.5552 59.3516 37.208C60.1157 38.1472 59.0892 39.4194 57.9871 38.9681C54.9474 37.7815 53.3294 34.5938 51.0427 32.421C47.3419 27.8098 41.7088 23.8437 39.2536 18.557Z" fill="#3BC5FF"/>
<path fill-rule="evenodd" clip-rule="evenodd" d="M43.6139 14.5535C44.5938 10.5197 50.8912 17.6435 52.4641 18.8355C57.4492 22.5058 71.2505 45.8735 57.1857 29.1935C55.4228 27.0616 53.7629 24.8348 51.8814 22.8139C49.4303 19.8655 45.4646 17.9116 43.6139 14.5535Z" fill="#3BC5FF"/>
<path fill-rule="evenodd" clip-rule="evenodd" d="M35.4471 25.5812C32.211 13.8785 51.3989 38.774 53.0422 40.4601C53.4169 47.5687 37.7601 26.602 35.4471 25.5812Z" fill="#3BC5FF"/>
<path fill-rule="evenodd" clip-rule="evenodd" d="M65.7379 26.0353C65.1364 29.2515 59.1577 21.2391 57.9533 20.3582C55.9154 17.9223 53.1046 16.3166 50.9045 14.108C50.2005 13.2918 51.4548 11.8462 52.4167 12.3481C57.9284 15.541 62.0856 20.9619 65.7379 26.0353Z" fill="#3BC5FF"/>
<path fill-rule="evenodd" clip-rule="evenodd" d="M104.656 24.8482C102.104 21.5808 99.8446 18.1336 97.6196 14.6309C95.9824 12.2727 94.7742 9.57772 92.8136 7.46467C91.6726 6.29495 90.8109 8.41143 89.937 8.96299C83.0294 14.787 76.0905 20.5603 69.191 26.3781C68.7135 26.742 69.0961 27.1706 69.4727 27.4659C74.7501 31.9111 79.1799 37.2908 84.5668 41.5811C85.6527 43.3517 91.0914 36.2124 92.4633 35.2991C95.857 31.0471 100.756 28.498 104.656 24.8482ZM65.4399 24.038C66.4194 11.3076 52.3887 6.92835 43.3583 14.0388C41.5437 15.0314 37.5925 23.4203 38.3539 25.2844C38.9727 26.8486 36.6208 27.6305 36.8894 29.2062C37.468 49.1561 66.1126 45.3089 65.4399 24.038ZM3.0992 26.0143C3.07072 31.0751 3.03493 39.5023 3.41939 45.4047C3.43791 45.841 3.74177 46.0019 4.10834 45.7741C7.86737 43.27 12.0056 41.3283 15.6177 38.6059C21.7552 34.3576 27.5379 29.6531 33.8755 25.7062C35.0081 24.8131 30.0369 22.0122 29.4069 21.0266C21.4763 14.323 12.4376 9.01728 3.72699 3.39726C3.0967 2.91617 2.75021 3.58163 2.82536 4.18454C2.67879 11.8977 2.91933 17.3194 3.0992 26.0143ZM83.1397 43.7726C78.3549 39.2821 73.7871 34.5697 69.0232 30.0305C68.2452 29.1779 67.5497 28.7659 67.2757 30.2205C63.3485 48.2447 36.2098 49.223 34.6122 29.6829C28.9753 32.3961 24.4556 37.0202 18.9322 40.0117C14.0897 43.7794 7.90487 45.7798 3.23953 49.5871C3.13202 49.998 2.55214 49.9588 2.20284 49.8479C1.04432 50.4442 0.379655 49.1617 0.545357 48.1722C0.516107 42.7877 0.603857 37.3513 0.228577 31.9707C0.377476 23.3078 -0.158065 14.5867 0.514391 5.90302C0.945994 4.40749 0.120131 -0.420898 2.42674 0.0295327C14.6937 5.27397 24.9095 14.1676 35.3111 22.2553C37.2393 23.4583 37.8487 13.1729 43.9117 10.9004C55.0844 4.71665 67.7459 9.32582 67.9583 23.1666C68.2449 25.0853 75.0844 17.435 75.9237 16.6758C80.1708 12.6993 85.089 9.50709 89.2533 5.42241C92.8213 1.54622 96.1348 7.34424 97.801 10.2085C100.689 14.9273 103.341 19.7956 106.408 24.3993C106.765 24.9297 107.805 26.5008 106.637 26.4926C106.201 26.339 105.877 26.3718 105.583 26.719C103.96 28.6371 101.832 29.9694 99.9153 31.5414C95.9457 34.986 92.636 39.0761 88.6283 42.4717C87.0136 44.1306 84.8884 46.2388 82.5608 46.4596C80.7932 45.9129 82.1262 44.394 83.1397 43.7726Z" fill="black"/>
</svg>
