<svg width="21" height="17" viewBox="0 0 21 17" fill="none" xmlns="http://www.w3.org/2000/svg">
<path d="M8.97778 16.3871H11.2222C11.8394 16.3871 12.3444 15.8065 12.3444 15.0968C12.3444 14.3871 11.8394 13.8065 11.2222 13.8065H8.97778C8.36056 13.8065 7.85556 14.3871 7.85556 15.0968C7.85556 15.8065 8.36056 16.3871 8.97778 16.3871ZM0 2.19355C0 2.90323 0.505 3.48387 1.12222 3.48387H19.0778C19.695 3.48387 20.2 2.90323 20.2 2.19355C20.2 1.48387 19.695 0.903229 19.0778 0.903229H1.12222C0.505 0.903229 0 1.48387 0 2.19355ZM4.48889 9.93549H15.7111C16.3283 9.93549 16.8333 9.35484 16.8333 8.64516C16.8333 7.93549 16.3283 7.35484 15.7111 7.35484H4.48889C3.87167 7.35484 3.36667 7.93549 3.36667 8.64516C3.36667 9.35484 3.87167 9.93549 4.48889 9.93549Z" fill="white"/>
</svg>
